  0
SECTION
  2
HEADER
  9
$ACADVER
  1
AC1024
  9
$ACADMAINTVER
 70
     6
  9
$DWGCODEPAGE
  3
ANSI_1252
  9
$INSBASE
 10
0.0
 20
0.0
 30
0.0
  9
$EXTMIN
 10
1.000000000000000E+20
 20
1.000000000000000E+20
 30
1.000000000000000E+20
  9
$EXTMAX
 10
-1.000000000000000E+20
 20
-1.000000000000000E+20
 30
-1.000000000000000E+20
  9
$LIMMIN
 10
0.0
 20
0.0
  9
$LIMMAX
 10
12.0
 20
9.0
  9
$ORTHOMODE
 70
     0
  9
$REGENMODE
 70
     1
  9
$FILLMODE
 70
     1
  9
$QTEXTMODE
 70
     0
  9
$MIRRTEXT
 70
     1
  9
$LTSCALE
 40
1.0
  9
$ATTMODE
 70
     1
  9
$TEXTSIZE
 40
0.2
  9
$TRACEWID
 40
0.05
  9
$TEXTSTYLE
  7
Standard
  9
$CLAYER
  8
0
  9
$CELTYPE
  6
ByLayer
  9
$CECOLOR
 62
   256
  9
$CELTSCALE
 40
1.0
  9
$DISPSILH
 70
     0
  9
$DIMSCALE
 40
1.0
  9
$DIMASZ
 40
0.18
  9
$DIMEXO
 40
0.0625
  9
$DIMDLI
 40
0.38
  9
$DIMRND
 40
0.0
  9
$DIMDLE
 40
0.0
  9
$DIMEXE
 40
0.18
  9
$DIMTP
 40
0.0
  9
$DIMTM
 40
0.0
  9
$DIMTXT
 40
0.18
  9
$DIMCEN
 40
0.09
  9
$DIMTSZ
 40
0.0
  9
$DIMTOL
 70
     0
  9
$DIMLIM
 70
     0
  9
$DIMTIH
 70
     1
  9
$DIMTOH
 70
     1
  9
$DIMSE1
 70
     0
  9
$DIMSE2
 70
     0
  9
$DIMTAD
 70
     0
  9
$DIMZIN
 70
     0
  9
$DIMBLK
  1

  9
$DIMASO
 70
     1
  9
$DIMSHO
 70
     1
  9
$DIMPOST
  1

  9
$DIMAPOST
  1

  9
$DIMALT
 70
     0
  9
$DIMALTD
 70
     2
  9
$DIMALTF
 40
25.4
  9
$DIMLFAC
 40
1.0
  9
$DIMTOFL
 70
     0
  9
$DIMTVP
 40
0.0
  9
$DIMTIX
 70
     0
  9
$DIMSOXD
 70
     0
  9
$DIMSAH
 70
     0
  9
$DIMBLK1
  1

  9
$DIMBLK2
  1

  9
$DIMSTYLE
  2
Standard
  9
$DIMCLRD
 70
     0
  9
$DIMCLRE
 70
     0
  9
$DIMCLRT
 70
     0
  9
$DIMTFAC
 40
1.0
  9
$DIMGAP
 40
0.09
  9
$DIMJUST
 70
     0
  9
$DIMSD1
 70
     0
  9
$DIMSD2
 70
     0
  9
$DIMTOLJ
 70
     1
  9
$DIMTZIN
 70
     0
  9
$DIMALTZ
 70
     0
  9
$DIMALTTZ
 70
     0
  9
$DIMUPT
 70
     0
  9
$DIMDEC
 70
     4
  9
$DIMTDEC
 70
     4
  9
$DIMALTU
 70
     2
  9
$DIMALTTD
 70
     2
  9
$DIMTXSTY
  7
Standard
  9
$DIMAUNIT
 70
     0
  9
$DIMADEC
 70
     0
  9
$DIMALTRND
 40
0.0
  9
$DIMAZIN
 70
     0
  9
$DIMDSEP
 70
    46
  9
$DIMATFIT
 70
     3
  9
$DIMFRAC
 70
     0
  9
$DIMLDRBLK
  1

  9
$DIMLUNIT
 70
     2
  9
$DIMLWD
 70
    -2
  9
$DIMLWE
 70
    -2
  9
$DIMTMOVE
 70
     0
  9
$DIMFXL
 40
1.0
  9
$DIMFXLON
 70
     0
  9
$DIMJOGANG
 40
0.7853981633974483
  9
$DIMTFILL
 70
     0
  9
$DIMTFILLCLR
 70
     0
  9
$DIMARCSYM
 70
     0
  9
$DIMLTYPE
  6

  9
$DIMLTEX1
  6

  9
$DIMLTEX2
  6

  9
$DIMTXTDIRECTION
 70
     0
  9
$LUNITS
 70
     2
  9
$LUPREC
 70
     4
  9
$SKETCHINC
 40
0.1
  9
$FILLETRAD
 40
0.5
  9
$AUNITS
 70
     0
  9
$AUPREC
 70
     0
  9
$MENU
  1
.
  9
$ELEVATION
 40
0.0
  9
$PELEVATION
 40
0.0
  9
$THICKNESS
 40
0.0
  9
$LIMCHECK
 70
     0
  9
$CHAMFERA
 40
0.5
  9
$CHAMFERB
 40
0.5
  9
$CHAMFERC
 40
1.0
  9
$CHAMFERD
 40
0.0
  9
$SKPOLY
 70
     0
  9
$TDCREATE
 40
2459092.484285232
  9
$TDUCREATE
 40
2459092.150951898
  9
$TDUPDATE
 40
2459092.48428537
  9
$TDUUPDATE
 40
2459092.150952037
  9
$TDINDWG
 40
0.0000000116
  9
$TDUSRTIMER
 40
0.0000000116
  9
$USRTIMER
 70
     1
  9
$ANGBASE
 50
0.0
  9
$ANGDIR
 70
     0
  9
$PDMODE
 70
     0
  9
$PDSIZE
 40
0.0
  9
$PLINEWID
 40
0.0
  9
$SPLFRAME
 70
     0
  9
$SPLINETYPE
 70
     6
  9
$SPLINESEGS
 70
     8
  9
$HANDSEED
  5
76
  9
$SURFTAB1
 70
     6
  9
$SURFTAB2
 70
     6
  9
$SURFTYPE
 70
     6
  9
$SURFU
 70
     6
  9
$SURFV
 70
     6
  9
$UCSBASE
  2

  9
$UCSNAME
  2

  9
$UCSORG
 10
0.0
 20
0.0
 30
0.0
  9
$UCSXDIR
 10
1.0
 20
0.0
 30
0.0
  9
$UCSYDIR
 10
0.0
 20
1.0
 30
0.0
  9
$UCSORTHOREF
  2

  9
$UCSORTHOVIEW
 70
     0
  9
$UCSORGTOP
 10
0.0
 20
0.0
 30
0.0
  9
$UCSORGBOTTOM
 10
0.0
 20
0.0
 30
0.0
  9
$UCSORGLEFT
 10
0.0
 20
0.0
 30
0.0
  9
$UCSORGRIGHT
 10
0.0
 20
0.0
 30
0.0
  9
$UCSORGFRONT
 10
0.0
 20
0.0
 30
0.0
  9
$UCSORGBACK
 10
0.0
 20
0.0
 30
0.0
  9
$PUCSBASE
  2

  9
$PUCSNAME
  2

  9
$PUCSORG
 10
0.0
 20
0.0
 30
0.0
  9
$PUCSXDIR
 10
1.0
 20
0.0
 30
0.0
  9
$PUCSYDIR
 10
0.0
 20
1.0
 30
0.0
  9
$PUCSORTHOREF
  2

  9
$PUCSORTHOVIEW
 70
     0
  9
$PUCSORGTOP
 10
0.0
 20
0.0
 30
0.0
  9
$PUCSORGBOTTOM
 10
0.0
 20
0.0
 30
0.0
  9
$PUCSORGLEFT
 10
0.0
 20
0.0
 30
0.0
  9
$PUCSORGRIGHT
 10
0.0
 20
0.0
 30
0.0
  9
$PUCSORGFRONT
 10
0.0
 20
0.0
 30
0.0
  9
$PUCSORGBACK
 10
0.0
 20
0.0
 30
0.0
  9
$USERI1
 70
     0
  9
$USERI2
 70
     0
  9
$USERI3
 70
     0
  9
$USERI4
 70
     0
  9
$USERI5
 70
     0
  9
$USERR1
 40
0.0
  9
$USERR2
 40
0.0
  9
$USERR3
 40
0.0
  9
$USERR4
 40
0.0
  9
$USERR5
 40
0.0
  9
$WORLDVIEW
 70
     1
  9
$SHADEDGE
 70
     3
  9
$SHADEDIF
 70
    70
  9
$TILEMODE
 70
     1
  9
$MAXACTVP
 70
    64
  9
$PINSBASE
 10
0.0
 20
0.0
 30
0.0
  9
$PLIMCHECK
 70
     0
  9
$PEXTMIN
 10
1.000000000000000E+20
 20
1.000000000000000E+20
 30
1.000000000000000E+20
  9
$PEXTMAX
 10
-1.000000000000000E+20
 20
-1.000000000000000E+20
 30
-1.000000000000000E+20
  9
$PLIMMIN
 10
0.0
 20
0.0
  9
$PLIMMAX
 10
12.0
 20
9.0
  9
$UNITMODE
 70
     0
  9
$VISRETAIN
 70
     1
  9
$PLINEGEN
 70
     0
  9
$PSLTSCALE
 70
     1
  9
$TREEDEPTH
 70
  3020
  9
$CMLSTYLE
  2
Standard
  9
$CMLJUST
 70
     0
  9
$CMLSCALE
 40
1.0
  9
$PROXYGRAPHICS
 70
     1
  9
$MEASUREMENT
 70
     0
  9
$CELWEIGHT
370
    -1
  9
$ENDCAPS
280
     0
  9
$JOINSTYLE
280
     0
  9
$LWDISPLAY
290
     1
  9
$INSUNITS
 70
     0
  9
$HYPERLINKBASE
  1

  9
$STYLESHEET
  1

  9
$XEDIT
290
     1
  9
$CEPSNTYPE
380
     0
  9
$PSTYLEMODE
290
     1
  9
$FINGERPRINTGUID
  2
{26609D3E-2B1A-49B7-9784-538DD9B56DD2}
  9
$VERSIONGUID
  2
{FAEB1C32-E019-11D5-929B-00C0DF256EC4}
  9
$EXTNAMES
290
     1
  9
$PSVPSCALE
 40
0.0
  9
$OLESTARTUP
290
     0
  9
$SORTENTS
280
   127
  9
$INDEXCTL
280
     0
  9
$HIDETEXT
280
     1
  9
$XCLIPFRAME
280
     2
  9
$HALOGAP
280
     0
  9
$OBSCOLOR
 70
   257
  9
$OBSLTYPE
280
     0
  9
$INTERSECTIONDISPLAY
280
     0
  9
$INTERSECTIONCOLOR
 70
   257
  9
$DIMASSOC
280
     2
  9
$PROJECTNAME
  1

  9
$CAMERADISPLAY
290
     0
  9
$LENSLENGTH
 40
50.0
  9
$CAMERAHEIGHT
 40
0.0
  9
$STEPSPERSEC
 40
2.0
  9
$STEPSIZE
 40
6.0
  9
$3DDWFPREC
 40
2.0
  9
$PSOLWIDTH
 40
0.25
  9
$PSOLHEIGHT
 40
4.0
  9
$LOFTANG1
 40
1.570796326794897
  9
$LOFTANG2
 40
1.570796326794897
  9
$LOFTMAG1
 40
0.0
  9
$LOFTMAG2
 40
0.0
  9
$LOFTPARAM
 70
     7
  9
$LOFTNORMALS
280
     1
  9
$LATITUDE
 40
37.795
  9
$LONGITUDE
 40
-122.394
  9
$NORTHDIRECTION
 40
0.0
  9
$TIMEZONE
 70
 -8000
  9
$LIGHTGLYPHDISPLAY
280
     1
  9
$TILEMODELIGHTSYNCH
280
     1
  9
$CMATERIAL
347
3C
  9
$SOLIDHIST
280
     1
  9
$SHOWHIST
280
     1
  9
$DWFFRAME
280
     2
  9
$DGNFRAME
280
     2
  9
$REALWORLDSCALE
290
     1
  9
$INTERFERECOLOR
 62
   256
  9
$CSHADOW
280
     0
  9
$SHADOWPLANELOCATION
 40
0.0
  0
ENDSEC
  0
SECTION
  2
CLASSES
  0
CLASS
  1
ACDBDICTIONARYWDFLT
  2
AcDbDictionaryWithDefault
  3
ObjectDBX Classes
 90
        0
 91
        4
280
     0
281
     0
  0
CLASS
  1
VISUALSTYLE
  2
AcDbVisualStyle
  3
ObjectDBX Classes
 90
     4095
 91
        4
280
     0
281
     0
  0
CLASS
  1
MATERIAL
  2
AcDbMaterial
  3
ObjectDBX Classes
 90
     1153
 91
        4
280
     0
281
     0
  0
CLASS
  1
SUN
  2
AcDbSun
  3
SCENEOE
 90
     1024
 91
        4
280
     0
281
     0
  0
ENDSEC
  0
SECTION
  2
TABLES
  0
TABLE
  2
VPORT
  5
8
330
0
100
AcDbSymbolTable
 70
     1
  0
VPORT
  5
29
330
8
100
AcDbSymbolTableRecord
100
AcDbViewportTableRecord
  2
*Active
 70
     0
 10
0.0
 20
0.0
 11
1.0
 21
1.0
 12
0.0
 22
0.0
 13
0.0
 23
0.0
 14
0.5
 24
0.5
 15
0.5
 25
0.5
 16
0.0
 26
0.0
 36
1.0
 17
1920.0
 27
1080.0
 37
0.0
 40
2160.0
 41
1.777777777777778
 42
50.0
 43
0.0
 44
0.0
 50
0.0
 51
0.0
 71
     0
 72
   100
 73
     1
 74
     3
 75
     0
 76
     0
 77
     0
 78
     0
281
     0
 65
     1
110
0.0
120
0.0
130
0.0
111
1.0
121
0.0
131
0.0
112
0.0
122
1.0
132
0.0
 79
     0
146
0.0
 60
     3
 61
     5
292
     1
282
     1
141
0.0
142
0.0
 63
   250
361
3F
  0
ENDTAB
  0
TABLE
  2
LTYPE
  5
5
330
0
100
AcDbSymbolTable
 70
     1
  0
LTYPE
  5
14
330
5
100
AcDbSymbolTableRecord
100
AcDbLinetypeTableRecord
  2
ByBlock
 70
     0
  3

 72
    65
 73
     0
 40
0.0
  0
LTYPE
  5
15
330
5
100
AcDbSymbolTableRecord
100
AcDbLinetypeTableRecord
  2
ByLayer
 70
     0
  3

 72
    65
 73
     0
 40
0.0
  0
LTYPE
  5
16
330
5
100
AcDbSymbolTableRecord
100
AcDbLinetypeTableRecord
  2
Continuous
 70
     0
  3
Solid line
 72
    65
 73
     0
 40
0.0
  0
ENDTAB
  0
TABLE
  2
LAYER
  5
2
330
0
100
AcDbSymbolTable
 70
     1
  0
LAYER
  5
10
330
2
100
AcDbSymbolTableRecord
100
AcDbLayerTableRecord
  2
0
 70
     0
 62
     7
  6
Continuous
370
    -3
390
F
347
3E
  0
ENDTAB
  0
TABLE
  2
STYLE
  5
3
330
0
100
AcDbSymbolTable
 70
     1
  0
STYLE
  5
11
330
3
100
AcDbSymbolTableRecord
100
AcDbTextStyleTableRecord
  2
Standard
 70
     0
 40
0.0
 41
1.0
 50
0.0
 71
     0
 42
0.2
  3
txt
  4

  0
ENDTAB
  0
TABLE
  2
VIEW
  5
6
330
0
100
AcDbSymbolTable
 70
     0
  0
ENDTAB
  0
TABLE
  2
UCS
  5
7
330
0
100
AcDbSymbolTable
 70
     0
  0
ENDTAB
  0
TABLE
  2
APPID
  5
9
330
0
100
AcDbSymbolTable
 70
     1
  0
APPID
  5
12
330
9
100
AcDbSymbolTableRecord
100
AcDbRegAppTableRecord
  2
ACAD
 70
     0
  0
ENDTAB
  0
TABLE
  2
DIMSTYLE
  5
A
330
0
100
AcDbSymbolTable
 70
     1
100
AcDbDimStyleTable
  0
DIMSTYLE
105
27
330
A
100
AcDbSymbolTableRecord
100
AcDbDimStyleTableRecord
  2
Standard
 70
     0
178
     0
340
11
  0
ENDTAB
  0
TABLE
  2
BLOCK_RECORD
  5
1
330
0
100
AcDbSymbolTable
 70
     9
  0
BLOCK_RECORD
  5
1F
330
1
100
AcDbSymbolTableRecord
100
AcDbBlockTableRecord
  2
*Model_Space
340
22
 70
     0
280
     1
281
     0
  0
BLOCK_RECORD
  5
1B
330
1
100
AcDbSymbolTableRecord
100
AcDbBlockTableRecord
  2
*Paper_Space
340
1E
 70
     0
280
     1
281
     0
  0
BLOCK_RECORD
  5
23
330
1
100
AcDbSymbolTableRecord
100
AcDbBlockTableRecord
  2
*Paper_Space0
340
26
 70
     0
280
     1
281
     0
  0
BLOCK_RECORD
  5
40
330
1
100
AcDbSymbolTableRecord
100
AcDbBlockTableRecord
  2
block 2
340
0
102
{BLKREFS
331
41
102
}
 70
     0
280
     1
281
     0
  0
BLOCK_RECORD
  5
45
330
1
100
AcDbSymbolTableRecord
100
AcDbBlockTableRecord
  2
block 3
340
0
102
{BLKREFS
331
46
102
}
 70
     0
280
     1
281
     0
  0
BLOCK_RECORD
  5
4A
330
1
100
AcDbSymbolTableRecord
100
AcDbBlockTableRecord
  2
block 4
340
0
102
{BLKREFS
331
4B
102
}
 70
     0
280
     1
281
     0
  0
BLOCK_RECORD
  5
4F
330
1
100
AcDbSymbolTableRecord
100
AcDbBlockTableRecord
  2
block 5
340
0
102
{BLKREFS
331
50
102
}
 70
     0
280
     1
281
     0
  0
BLOCK_RECORD
  5
54
330
1
100
AcDbSymbolTableRecord
100
AcDbBlockTableRecord
  2
block 6
340
0
102
{BLKREFS
331
55
102
}
 70
     0
280
     1
281
     0
  0
BLOCK_RECORD
  5
59
330
1
100
AcDbSymbolTableRecord
100
AcDbBlockTableRecord
  2
block 7
340
0
102
{BLKREFS
331
5A
102
}
 70
     0
280
     1
281
     0
  0
BLOCK_RECORD
  5
5E
330
1
100
AcDbSymbolTableRecord
100
AcDbBlockTableRecord
  2
block 8
340
0
102
{BLKREFS
331
5F
102
}
 70
     0
280
     1
281
     0
  0
BLOCK_RECORD
  5
64
330
1
100
AcDbSymbolTableRecord
100
AcDbBlockTableRecord
  2
block 9
340
0
102
{BLKREFS
331
65
102
}
 70
     0
280
     1
281
     0
  0
ENDTAB
  0
ENDSEC
  0
SECTION
  2
BLOCKS
  0
BLOCK
  5
20
330
1F
100
AcDbEntity
  8
0
100
AcDbBlockBegin
  2
*Model_Space
 70
     0
 10
0.0
 20
0.0
 30
0.0
  3
*Model_Space
  1

  0
ENDBLK
  5
21
330
1F
100
AcDbEntity
  8
0
100
AcDbBlockEnd
  0
BLOCK
  5
1C
330
1B
100
AcDbEntity
 67
     1
  8
0
100
AcDbBlockBegin
  2
*Paper_Space
 70
     0
 10
0.0
 20
0.0
 30
0.0
  3
*Paper_Space
  1

  0
ENDBLK
  5
1D
330
1B
100
AcDbEntity
 67
     1
  8
0
100
AcDbBlockEnd
  0
BLOCK
  5
24
330
23
100
AcDbEntity
  8
0
100
AcDbBlockBegin
  2
*Paper_Space0
 70
     0
 10
0.0
 20
0.0
 30
0.0
  3
*Paper_Space0
  1

  0
ENDBLK
  5
25
330
23
100
AcDbEntity
  8
0
100
AcDbBlockEnd
  0
BLOCK
  5
42
330
40
100
AcDbEntity
  8
0
100
AcDbBlockBegin
  2
block 2
 70
     0
 10
0.0
 20
0.0
 30
0.0
  3
block 2
  1

  0
SPLINE
  5
44
330
40
100
AcDbEntity
  8
0
 62
     7
420
 16777215
370
    25
100
AcDbSpline
210
0.0
220
0.0
230
1.0
 70
    11
 71
     3
 72
    20
 73
    16
 74
     0
 42
0.0000000001
 43
0.0000000001
 12
1.0
 22
0.0
 32
0.0
 13
1.0
 23
0.0
 33
0.0
 40
0.0
 40
0.0
 40
0.0
 40
0.0
 40
1.0
 40
1.0
 40
1.0
 40
2.0
 40
2.0
 40
2.0
 40
3.0
 40
3.0
 40
3.0
 40
4.0
 40
4.0
 40
4.0
 40
5.0
 40
5.0
 40
5.0
 40
5.0
 10
1804.5
 20
1130.85
 30
0.0
 10
1804.5
 20
1131.5127416998
 30
0.0
 10
1805.0372583002
 20
1132.05
 30
0.0
 10
1805.7
 20
1132.05
 30
0.0
 10
1806.3627416998
 20
1132.05
 30
0.0
 10
1806.9
 20
1131.5127416998
 30
0.0
 10
1806.9
 20
1130.85
 30
0.0
 10
1806.9
 20
1130.1872583002
 30
0.0
 10
1806.3627416998
 20
1129.65
 30
0.0
 10
1805.7
 20
1129.65
 30
0.0
 10
1805.0372583002
 20
1129.65
 30
0.0
 10
1804.5
 20
1130.1872583002
 30
0.0
 10
1804.5
 20
1130.85
 30
0.0
 10
1804.5
 20
1130.85
 30
0.0
 10
1804.5
 20
1130.85
 30
0.0
 10
1804.5
 20
1130.85
 30
0.0
  0
ENDBLK
  5
43
330
40
100
AcDbEntity
  8
0
100
AcDbBlockEnd
  0
BLOCK
  5
47
330
45
100
AcDbEntity
  8
0
100
AcDbBlockBegin
  2
block 3
 70
     0
 10
0.0
 20
0.0
 30
0.0
  3
block 3
  1

  0
SPLINE
  5
49
330
45
100
AcDbEntity
  8
0
 62
     7
420
 16777215
370
    25
100
AcDbSpline
210
0.0
220
0.0
230
1.0
 70
    11
 71
     3
 72
    20
 73
    16
 74
     0
 42
0.0000000001
 43
0.0000000001
 12
1.0
 22
0.0
 32
0.0
 13
1.0
 23
0.0
 33
0.0
 40
0.0
 40
0.0
 40
0.0
 40
0.0
 40
1.0
 40
1.0
 40
1.0
 40
2.0
 40
2.0
 40
2.0
 40
3.0
 40
3.0
 40
3.0
 40
4.0
 40
4.0
 40
4.0
 40
5.0
 40
5.0
 40
5.0
 40
5.0
 10
1918.8
 20
1130.85
 30
0.0
 10
1918.8
 20
1131.5127416998
 30
0.0
 10
1919.3372583002
 20
1132.05
 30
0.0
 10
1920.0
 20
1132.05
 30
0.0
 10
1920.6627416998
 20
1132.05
 30
0.0
 10
1921.200000000001
 20
1131.5127416998
 30
0.0
 10
1921.200000000001
 20
1130.85
 30
0.0
 10
1921.200000000001
 20
1130.1872583002
 30
0.0
 10
1920.6627416998
 20
1129.65
 30
0.0
 10
1920.0
 20
1129.65
 30
0.0
 10
1919.3372583002
 20
1129.65
 30
0.0
 10
1918.8
 20
1130.1872583002
 30
0.0
 10
1918.8
 20
1130.85
 30
0.0
 10
1918.8
 20
1130.85
 30
0.0
 10
1918.8
 20
1130.85
 30
0.0
 10
1918.8
 20
1130.85
 30
0.0
  0
ENDBLK
  5
48
330
45
100
AcDbEntity
  8
0
100
AcDbBlockEnd
  0
BLOCK
  5
4C
330
4A
100
AcDbEntity
  8
0
100
AcDbBlockBegin
  2
block 4
 70
     0
 10
0.0
 20
0.0
 30
0.0
  3
block 4
  1

  0
SPLINE
  5
4E
330
4A
100
AcDbEntity
  8
0
 62
     7
420
 16777215
370
    25
100
AcDbSpline
210
0.0
220
0.0
230
1.0
 70
    11
 71
     3
 72
    20
 73
    16
 74
     0
 42
0.0000000001
 43
0.0000000001
 12
1.0
 22
0.0
 32
0.0
 13
1.0
 23
0.0
 33
0.0
 40
0.0
 40
0.0
 40
0.0
 40
0.0
 40
1.0
 40
1.0
 40
1.0
 40
2.0
 40
2.0
 40
2.0
 40
3.0
 40
3.0
 40
3.0
 40
4.0
 40
4.0
 40
4.0
 40
5.0
 40
5.0
 40
5.0
 40
5.0
 10
2052.15
 20
1130.85
 30
0.0
 10
2052.15
 20
1131.5127416998
 30
0.0
 10
2052.6872583002
 20
1132.05
 30
0.0
 10
2053.35
 20
1132.05
 30
0.0
 10
2054.0127416998
 20
1132.05
 30
0.0
 10
2054.549999999999
 20
1131.5127416998
 30
0.0
 10
2054.549999999999
 20
1130.85
 30
0.0
 10
2054.549999999999
 20
1130.1872583002
 30
0.0
 10
2054.0127416998
 20
1129.65
 30
0.0
 10
2053.35
 20
1129.65
 30
0.0
 10
2052.6872583002
 20
1129.65
 30
0.0
 10
2052.15
 20
1130.1872583002
 30
0.0
 10
2052.15
 20
1130.85
 30
0.0
 10
2052.15
 20
1130.85
 30
0.0
 10
2052.15
 20
1130.85
 30
0.0
 10
2052.15
 20
1130.85
 30
0.0
  0
ENDBLK
  5
4D
330
4A
100
AcDbEntity
  8
0
100
AcDbBlockEnd
  0
BLOCK
  5
51
330
4F
100
AcDbEntity
  8
0
100
AcDbBlockBegin
  2
block 5
 70
     0
 10
0.0
 20
0.0
 30
0.0
  3
block 5
  1

  0
SPLINE
  5
53
330
4F
100
AcDbEntity
  8
0
 62
     7
420
 16777215
370
    25
100
AcDbSpline
210
0.0
220
0.0
230
1.0
 70
    11
 71
     3
 72
    20
 73
    16
 74
     0
 42
0.0000000001
 43
0.0000000001
 12
1.0
 22
0.0
 32
0.0
 13
1.0
 23
0.0
 33
0.0
 40
0.0
 40
0.0
 40
0.0
 40
0.0
 40
1.0
 40
1.0
 40
1.0
 40
2.0
 40
2.0
 40
2.0
 40
3.0
 40
3.0
 40
3.0
 40
4.0
 40
4.0
 40
4.0
 40
5.0
 40
5.0
 40
5.0
 40
5.0
 10
1918.8
 20
1030.15
 30
0.0
 10
1918.8
 20
1030.8127416998
 30
0.0
 10
1919.3372583002
 20
1031.35
 30
0.0
 10
1920.0
 20
1031.35
 30
0.0
 10
1920.6627416998
 20
1031.35
 30
0.0
 10
1921.200000000001
 20
1030.8127416998
 30
0.0
 10
1921.200000000001
 20
1030.15
 30
0.0
 10
1921.200000000001
 20
1029.4872583002
 30
0.0
 10
1920.6627416998
 20
1028.950000000001
 30
0.0
 10
1920.0
 20
1028.950000000001
 30
0.0
 10
1919.3372583002
 20
1028.950000000001
 30
0.0
 10
1918.8
 20
1029.4872583002
 30
0.0
 10
1918.8
 20
1030.15
 30
0.0
 10
1918.8
 20
1030.15
 30
0.0
 10
1918.8
 20
1030.15
 30
0.0
 10
1918.8
 20
1030.15
 30
0.0
  0
ENDBLK
  5
52
330
4F
100
AcDbEntity
  8
0
100
AcDbBlockEnd
  0
BLOCK
  5
56
330
54
100
AcDbEntity
  8
0
100
AcDbBlockBegin
  2
block 6
 70
     0
 10
0.0
 20
0.0
 30
0.0
  3
block 6
  1

  0
SPLINE
  5
58
330
54
100
AcDbEntity
  8
0
 62
     7
420
 16777215
370
    25
100
AcDbSpline
210
0.0
220
0.0
230
1.0
 70
    11
 71
     3
 72
    20
 73
    16
 74
     0
 42
0.0000000001
 43
0.0000000001
 12
1.0
 22
0.0
 32
0.0
 13
1.0
 23
0.0
 33
0.0
 40
0.0
 40
0.0
 40
0.0
 40
0.0
 40
1.0
 40
1.0
 40
1.0
 40
2.0
 40
2.0
 40
2.0
 40
3.0
 40
3.0
 40
3.0
 40
4.0
 40
4.0
 40
4.0
 40
5.0
 40
5.0
 40
5.0
 40
5.0
 10
1790.2125
 20
1030.15
 30
0.0
 10
1790.2125
 20
1030.8127416998
 30
0.0
 10
1790.7497583002
 20
1031.35
 30
0.0
 10
1791.4125
 20
1031.35
 30
0.0
 10
1792.0752416998
 20
1031.35
 30
0.0
 10
1792.6125
 20
1030.8127416998
 30
0.0
 10
1792.6125
 20
1030.15
 30
0.0
 10
1792.6125
 20
1029.4872583002
 30
0.0
 10
1792.0752416998
 20
1028.950000000001
 30
0.0
 10
1791.4125
 20
1028.950000000001
 30
0.0
 10
1790.7497583002
 20
1028.950000000001
 30
0.0
 10
1790.2125
 20
1029.4872583002
 30
0.0
 10
1790.2125
 20
1030.15
 30
0.0
 10
1790.2125
 20
1030.15
 30
0.0
 10
1790.2125
 20
1030.15
 30
0.0
 10
1790.2125
 20
1030.15
 30
0.0
  0
ENDBLK
  5
57
330
54
100
AcDbEntity
  8
0
100
AcDbBlockEnd
  0
BLOCK
  5
5B
330
59
100
AcDbEntity
  8
0
100
AcDbBlockBegin
  2
block 7
 70
     0
 10
0.0
 20
0.0
 30
0.0
  3
block 7
  1

  0
SPLINE
  5
5D
330
59
100
AcDbEntity
  8
0
 62
     7
420
 16777215
370
    25
100
AcDbSpline
210
0.0
220
0.0
230
1.0
 70
    11
 71
     3
 72
    20
 73
    16
 74
     0
 42
0.0000000001
 43
0.0000000001
 12
1.0
 22
0.0
 32
0.0
 13
1.0
 23
0.0
 33
0.0
 40
0.0
 40
0.0
 40
0.0
 40
0.0
 40
1.0
 40
1.0
 40
1.0
 40
2.0
 40
2.0
 40
2.0
 40
3.0
 40
3.0
 40
3.0
 40
4.0
 40
4.0
 40
4.0
 40
5.0
 40
5.0
 40
5.0
 40
5.0
 10
2052.15
 20
1030.15
 30
0.0
 10
2052.15
 20
1030.8127416998
 30
0.0
 10
2052.6872583002
 20
1031.35
 30
0.0
 10
2053.35
 20
1031.35
 30
0.0
 10
2054.0127416998
 20
1031.35
 30
0.0
 10
2054.549999999999
 20
1030.8127416998
 30
0.0
 10
2054.549999999999
 20
1030.15
 30
0.0
 10
2054.549999999999
 20
1029.4872583002
 30
0.0
 10
2054.0127416998
 20
1028.950000000001
 30
0.0
 10
2053.35
 20
1028.950000000001
 30
0.0
 10
2052.6872583002
 20
1028.950000000001
 30
0.0
 10
2052.15
 20
1029.4872583002
 30
0.0
 10
2052.15
 20
1030.15
 30
0.0
 10
2052.15
 20
1030.15
 30
0.0
 10
2052.15
 20
1030.15
 30
0.0
 10
2052.15
 20
1030.15
 30
0.0
  0
ENDBLK
  5
5C
330
59
100
AcDbEntity
  8
0
100
AcDbBlockEnd
  0
BLOCK
  5
60
330
5E
100
AcDbEntity
  8
0
100
AcDbBlockBegin
  2
block 8
 70
     0
 10
0.0
 20
0.0
 30
0.0
  3
block 8
  1

  0
SPLINE
  5
62
330
5E
100
AcDbEntity
  8
0
 62
     7
420
 16777215
370
     5
100
AcDbSpline
210
0.0
220
0.0
230
1.0
 70
    11
 71
     3
 72
   254
 73
   250
 74
     0
 42
0.0000000001
 43
0.0000000001
 12
1.0
 22
0.0
 32
0.0
 13
1.0
 23
0.0
 33
0.0
 40
0.0
 40
0.0
 40
0.0
 40
0.0
 40
1.0
 40
1.0
 40
1.0
 40
2.0
 40
2.0
 40
2.0
 40
3.0
 40
3.0
 40
3.0
 40
4.0
 40
4.0
 40
4.0
 40
5.0
 40
5.0
 40
5.0
 40
6.0
 40
6.0
 40
6.0
 40
7.0
 40
7.0
 40
7.0
 40
8.0
 40
8.0
 40
8.0
 40
9.0
 40
9.0
 40
9.0
 40
10.0
 40
10.0
 40
10.0
 40
11.0
 40
11.0
 40
11.0
 40
12.0
 40
12.0
 40
12.0
 40
13.0
 40
13.0
 40
13.0
 40
14.0
 40
14.0
 40
14.0
 40
15.0
 40
15.0
 40
15.0
 40
16.0
 40
16.0
 40
16.0
 40
17.0
 40
17.0
 40
17.0
 40
18.0
 40
18.0
 40
18.0
 40
19.0
 40
19.0
 40
19.0
 40
20.0
 40
20.0
 40
20.0
 40
21.0
 40
21.0
 40
21.0
 40
22.0
 40
22.0
 40
22.0
 40
23.0
 40
23.0
 40
23.0
 40
24.0
 40
24.0
 40
24.0
 40
25.0
 40
25.0
 40
25.0
 40
26.0
 40
26.0
 40
26.0
 40
27.0
 40
27.0
 40
27.0
 40
28.0
 40
28.0
 40
28.0
 40
29.0
 40
29.0
 40
29.0
 40
30.0
 40
30.0
 40
30.0
 40
31.0
 40
31.0
 40
31.0
 40
32.0
 40
32.0
 40
32.0
 40
33.0
 40
33.0
 40
33.0
 40
34.0
 40
34.0
 40
34.0
 40
35.0
 40
35.0
 40
35.0
 40
36.0
 40
36.0
 40
36.0
 40
37.0
 40
37.0
 40
37.0
 40
38.0
 40
38.0
 40
38.0
 40
39.0
 40
39.0
 40
39.0
 40
40.0
 40
40.0
 40
40.0
 40
41.0
 40
41.0
 40
41.0
 40
42.0
 40
42.0
 40
42.0
 40
43.0
 40
43.0
 40
43.0
 40
44.0
 40
44.0
 40
44.0
 40
45.0
 40
45.0
 40
45.0
 40
46.0
 40
46.0
 40
46.0
 40
47.0
 40
47.0
 40
47.0
 40
48.0
 40
48.0
 40
48.0
 40
49.0
 40
49.0
 40
49.0
 40
50.0
 40
50.0
 40
50.0
 40
51.0
 40
51.0
 40
51.0
 40
52.0
 40
52.0
 40
52.0
 40
53.0
 40
53.0
 40
53.0
 40
54.0
 40
54.0
 40
54.0
 40
55.0
 40
55.0
 40
55.0
 40
56.0
 40
56.0
 40
56.0
 40
57.0
 40
57.0
 40
57.0
 40
58.0
 40
58.0
 40
58.0
 40
59.0
 40
59.0
 40
59.0
 40
60.0
 40
60.0
 40
60.0
 40
61.0
 40
61.0
 40
61.0
 40
62.0
 40
62.0
 40
62.0
 40
63.0
 40
63.0
 40
63.0
 40
64.0
 40
64.0
 40
64.0
 40
65.0
 40
65.0
 40
65.0
 40
66.0
 40
66.0
 40
66.0
 40
67.0
 40
67.0
 40
67.0
 40
68.0
 40
68.0
 40
68.0
 40
69.0
 40
69.0
 40
69.0
 40
70.0
 40
70.0
 40
70.0
 40
71.0
 40
71.0
 40
71.0
 40
72.0
 40
72.0
 40
72.0
 40
73.0
 40
73.0
 40
73.0
 40
74.0
 40
74.0
 40
74.0
 40
75.0
 40
75.0
 40
75.0
 40
76.0
 40
76.0
 40
76.0
 40
77.0
 40
77.0
 40
77.0
 40
78.0
 40
78.0
 40
78.0
 40
79.0
 40
79.0
 40
79.0
 40
80.0
 40
80.0
 40
80.0
 40
81.0
 40
81.0
 40
81.0
 40
82.0
 40
82.0
 40
82.0
 40
83.0
 40
83.0
 40
83.0
 40
83.0
 10
2068.50146484375
 20
1031.707641601561
 30
0.0
 10
2068.31274414063
 20
1031.511108398439
 30
0.0
 10
2068.05224609375
 20
1031.400024414061
 30
0.0
 10
2067.77978515625
 20
1031.400024414061
 30
0.0
 10
2067.77978515625
 20
1031.400024414061
 30
0.0
 10
2057.55004882813
 20
1031.400024414061
 30
0.0
 10
2057.55004882813
 20
1031.400024414061
 30
0.0
 10
2056.80444335938
 20
1031.400024414061
 30
0.0
 10
2056.19995117188
 20
1030.795532226561
 30
0.0
 10
2056.19995117188
 20
1030.05004882813
 30
0.0
 10
2056.19995117188
 20
1030.05004882813
 30
0.0
 10
2056.19995117188
 20
1029.400024414061
 30
0.0
 10
2056.19995117188
 20
1029.400024414061
 30
0.0
 10
2056.19995117188
 20
1028.654418945311
 30
0.0
 10
2055.595703125
 20
1028.05004882813
 30
0.0
 10
2054.85009765625
 20
1028.05004882813
 30
0.0
 10
2054.85009765625
 20
1028.05004882813
 30
0.0
 10
2051.85009765625
 20
1028.05004882813
 30
0.0
 10
2051.85009765625
 20
1028.05004882813
 30
0.0
 10
2051.1044921875
 20
1028.05004882813
 30
0.0
 10
2050.5
 20
1028.654418945311
 30
0.0
 10
2050.5
 20
1029.400024414061
 30
0.0
 10
2050.5
 20
1029.400024414061
 30
0.0
 10
2050.5
 20
1030.05004882813
 30
0.0
 10
2050.5
 20
1030.05004882813
 30
0.0
 10
2050.5
 20
1030.795532226561
 30
0.0
 10
2049.8955078125
 20
1031.400024414061
 30
0.0
 10
2049.14990234375
 20
1031.400024414061
 30
0.0
 10
2049.14990234375
 20
1031.400024414061
 30
0.0
 10
1972.386840820311
 20
1031.400024414061
 30
0.0
 10
1972.386840820311
 20
1031.400024414061
 30
0.0
 10
1972.11450195313
 20
1031.400024414061
 30
0.0
 10
1971.853881835939
 20
1031.511108398439
 30
0.0
 10
1971.66528320313
 20
1031.707641601561
 30
0.0
 10
1970.80493164063
 20
1032.604370117189
 30
0.0
 10
1969.38061523438
 20
1032.633911132811
 30
0.0
 10
1968.484008789061
 20
1031.773559570311
 30
0.0
 10
1968.461547851561
 20
1031.752075195311
 30
0.0
 10
1968.439575195311
 20
1031.730102539061
 30
0.0
 10
1968.418090820311
 20
1031.707641601561
 30
0.0
 10
1968.2294921875
 20
1031.511108398439
 30
0.0
 10
1967.968872070311
 20
1031.400024414061
 30
0.0
 10
1967.696411132811
 20
1031.400024414061
 30
0.0
 10
1967.696411132811
 20
1031.400024414061
 30
0.0
 10
1924.19995117188
 20
1031.400024414061
 30
0.0
 10
1924.19995117188
 20
1031.400024414061
 30
0.0
 10
1923.454467773439
 20
1031.400024414061
 30
0.0
 10
1922.849975585939
 20
1030.795532226561
 30
0.0
 10
1922.849975585939
 20
1030.05004882813
 30
0.0
 10
1922.849975585939
 20
1030.05004882813
 30
0.0
 10
1922.849975585939
 20
1029.400024414061
 30
0.0
 10
1922.849975585939
 20
1029.400024414061
 30
0.0
 10
1922.849975585939
 20
1028.654418945311
 30
0.0
 10
1922.24560546875
 20
1028.05004882813
 30
0.0
 10
1921.5
 20
1028.05004882813
 30
0.0
 10
1921.5
 20
1028.05004882813
 30
0.0
 10
1918.5
 20
1028.05004882813
 30
0.0
 10
1918.5
 20
1028.05004882813
 30
0.0
 10
1917.75439453125
 20
1028.05004882813
 30
0.0
 10
1917.15002441406
 20
1028.654418945311
 30
0.0
 10
1917.15002441406
 20
1029.400024414061
 30
0.0
 10
1917.15002441406
 20
1029.400024414061
 30
0.0
 10
1917.15002441406
 20
1030.05004882813
 30
0.0
 10
1917.15002441406
 20
1030.05004882813
 30
0.0
 10
1917.15002441406
 20
1030.795532226561
 30
0.0
 10
1916.54553222656
 20
1031.400024414061
 30
0.0
 10
1915.80004882813
 20
1031.400024414061
 30
0.0
 10
1915.80004882813
 20
1031.400024414061
 30
0.0
 10
1872.30358886719
 20
1031.400024414061
 30
0.0
 10
1872.30358886719
 20
1031.400024414061
 30
0.0
 10
1872.03112792969
 20
1031.400024414061
 30
0.0
 10
1871.7705078125
 20
1031.511108398439
 30
0.0
 10
1871.58190917969
 20
1031.707641601561
 30
0.0
 10
1870.7216796875
 20
1032.604370117189
 30
0.0
 10
1869.29736328125
 20
1032.633911132811
 30
0.0
 10
1868.40063476563
 20
1031.773559570311
 30
0.0
 10
1868.37817382813
 20
1031.752075195311
 30
0.0
 10
1868.35620117188
 20
1031.730102539061
 30
0.0
 10
1868.33471679688
 20
1031.707641601561
 30
0.0
 10
1868.14611816406
 20
1031.511108398439
 30
0.0
 10
1867.88549804688
 20
1031.400024414061
 30
0.0
 10
1867.61315917969
 20
1031.400024414061
 30
0.0
 10
1867.61315917969
 20
1031.400024414061
 30
0.0
 10
1795.61254882813
 20
1031.400024414061
 30
0.0
 10
1795.61254882813
 20
1031.400024414061
 30
0.0
 10
1794.86694335938
 20
1031.400024414061
 30
0.0
 10
1794.26245117188
 20
1030.795532226561
 30
0.0
 10
1794.26245117188
 20
1030.05004882813
 30
0.0
 10
1794.26245117188
 20
1030.05004882813
 30
0.0
 10
1794.26245117188
 20
1029.400024414061
 30
0.0
 10
1794.26245117188
 20
1029.400024414061
 30
0.0
 10
1794.26245117188
 20
1028.654418945311
 30
0.0
 10
1793.65808105469
 20
1028.05004882813
 30
0.0
 10
1792.91247558594
 20
1028.05004882813
 30
0.0
 10
1792.91247558594
 20
1028.05004882813
 30
0.0
 10
1789.91247558594
 20
1028.05004882813
 30
0.0
 10
1789.91247558594
 20
1028.05004882813
 30
0.0
 10
1789.16687011719
 20
1028.05004882813
 30
0.0
 10
1788.5625
 20
1028.654418945311
 30
0.0
 10
1788.5625
 20
1029.400024414061
 30
0.0
 10
1788.5625
 20
1029.400024414061
 30
0.0
 10
1788.5625
 20
1030.05004882813
 30
0.0
 10
1788.5625
 20
1030.05004882813
 30
0.0
 10
1788.5625
 20
1030.795532226561
 30
0.0
 10
1787.95812988281
 20
1031.400024414061
 30
0.0
 10
1787.21252441406
 20
1031.400024414061
 30
0.0
 10
1787.21252441406
 20
1031.400024414061
 30
0.0
 10
1772.22021484375
 20
1031.400024414061
 30
0.0
 10
1772.22021484375
 20
1031.400024414061
 30
0.0
 10
1771.94775390625
 20
1031.400024414061
 30
0.0
 10
1771.68713378906
 20
1031.511108398439
 30
0.0
 10
1771.49865722656
 20
1031.707641601561
 30
0.0
 10
1771.07434082031
 20
1032.150024414061
 30
0.0
 10
1770.48791503906
 20
1032.400024414061
 30
0.0
 10
1769.875
 20
1032.400024414061
 30
0.0
 10
1769.875
 20
1032.400024414061
 30
0.0
 10
1767.875
 20
1032.400024414061
 30
0.0
 10
1767.875
 20
1032.400024414061
 30
0.0
 10
1767.04663085938
 20
1032.400024414061
 30
0.0
 10
1766.375
 20
1033.07153320313
 30
0.0
 10
1766.375
 20
1033.900024414061
 30
0.0
 10
1766.375
 20
1033.900024414061
 30
0.0
 10
1766.375
 20
1127.09997558594
 30
0.0
 10
1766.375
 20
1127.09997558594
 30
0.0
 10
1766.375
 20
1127.92846679688
 30
0.0
 10
1767.04663085938
 20
1128.59997558594
 30
0.0
 10
1767.875
 20
1128.59997558594
 30
0.0
 10
1767.875
 20
1128.59997558594
 30
0.0
 10
1769.875
 20
1128.59997558594
 30
0.0
 10
1769.875
 20
1128.59997558594
 30
0.0
 10
1770.48791503906
 20
1128.59997558594
 30
0.0
 10
1771.07434082031
 20
1128.84997558594
 30
0.0
 10
1771.49865722656
 20
1129.29235839844
 30
0.0
 10
1771.68713378906
 20
1129.48889160156
 30
0.0
 10
1771.94775390625
 20
1129.59997558594
 30
0.0
 10
1772.22021484375
 20
1129.59997558594
 30
0.0
 10
1772.22021484375
 20
1129.59997558594
 30
0.0
 10
1801.5
 20
1129.59997558594
 30
0.0
 10
1801.5
 20
1129.59997558594
 30
0.0
 10
1802.33862304688
 20
1129.59997558594
 30
0.0
 10
1803.17712402344
 20
1129.59997558594
 30
0.0
 10
1804.015625
 20
1129.59997558594
 30
0.0
 10
1805.97717285156
 20
1129.59997558594
 30
0.0
 10
1807.93859863281
 20
1129.59997558594
 30
0.0
 10
1809.90002441406
 20
1129.59997558594
 30
0.0
 10
1813.03393554688
 20
1129.60095214844
 30
0.0
 10
1863.8408203125
 20
1129.59997558594
 30
0.0
 10
1867.61315917969
 20
1129.59997558594
 30
0.0
 10
1867.88549804688
 20
1129.59997558594
 30
0.0
 10
1868.14611816406
 20
1129.48889160156
 30
0.0
 10
1868.33471679688
 20
1129.29235839844
 30
0.0
 10
1869.19506835938
 20
1128.39562988281
 30
0.0
 10
1870.61938476563
 20
1128.36608886719
 30
0.0
 10
1871.51599121094
 20
1129.22644042969
 30
0.0
 10
1871.53845214844
 20
1129.24792480469
 30
0.0
 10
1871.56042480469
 20
1129.26989746094
 30
0.0
 10
1871.58190917969
 20
1129.29235839844
 30
0.0
 10
1871.7705078125
 20
1129.48889160156
 30
0.0
 10
1872.03112792969
 20
1129.59997558594
 30
0.0
 10
1872.30358886719
 20
1129.59997558594
 30
0.0
 10
1872.30358886719
 20
1129.59997558594
 30
0.0
 10
1915.80004882813
 20
1129.59997558594
 30
0.0
 10
1915.80004882813
 20
1129.59997558594
 30
0.0
 10
1916.54553222656
 20
1129.59997558594
 30
0.0
 10
1917.15002441406
 20
1130.20446777344
 30
0.0
 10
1917.15002441406
 20
1130.94995117188
 30
0.0
 10
1917.15002441406
 20
1130.94995117188
 30
0.0
 10
1917.15002441406
 20
1131.59997558594
 30
0.0
 10
1917.15002441406
 20
1131.59997558594
 30
0.0
 10
1917.15002441406
 20
1132.34558105469
 30
0.0
 10
1917.75439453125
 20
1132.94995117188
 30
0.0
 10
1918.5
 20
1132.94995117188
 30
0.0
 10
1918.5
 20
1132.94995117188
 30
0.0
 10
1921.5
 20
1132.94995117188
 30
0.0
 10
1921.5
 20
1132.94995117188
 30
0.0
 10
1922.24560546875
 20
1132.94995117188
 30
0.0
 10
1922.849975585939
 20
1132.34558105469
 30
0.0
 10
1922.849975585939
 20
1131.59997558594
 30
0.0
 10
1922.849975585939
 20
1131.59997558594
 30
0.0
 10
1922.849975585939
 20
1130.94995117188
 30
0.0
 10
1922.849975585939
 20
1130.94995117188
 30
0.0
 10
1922.849975585939
 20
1130.20446777344
 30
0.0
 10
1923.454467773439
 20
1129.59997558594
 30
0.0
 10
1924.19995117188
 20
1129.59997558594
 30
0.0
 10
1924.19995117188
 20
1129.59997558594
 30
0.0
 10
1967.696411132811
 20
1129.59997558594
 30
0.0
 10
1967.696411132811
 20
1129.59997558594
 30
0.0
 10
1967.968872070311
 20
1129.59997558594
 30
0.0
 10
1968.2294921875
 20
1129.48889160156
 30
0.0
 10
1968.418090820311
 20
1129.29235839844
 30
0.0
 10
1969.2783203125
 20
1128.39562988281
 30
0.0
 10
1970.70263671875
 20
1128.36608886719
 30
0.0
 10
1971.59936523438
 20
1129.22644042969
 30
0.0
 10
1971.62182617188
 20
1129.24792480469
 30
0.0
 10
1971.64379882813
 20
1129.26989746094
 30
0.0
 10
1971.66528320313
 20
1129.29235839844
 30
0.0
 10
1971.853881835939
 20
1129.48889160156
 30
0.0
 10
1972.11450195313
 20
1129.59997558594
 30
0.0
 10
1972.386840820311
 20
1129.59997558594
 30
0.0
 10
1972.386840820311
 20
1129.59997558594
 30
0.0
 10
2049.14990234375
 20
1129.59997558594
 30
0.0
 10
2049.14990234375
 20
1129.59997558594
 30
0.0
 10
2049.8955078125
 20
1129.59997558594
 30
0.0
 10
2050.5
 20
1130.20446777344
 30
0.0
 10
2050.5
 20
1130.94995117188
 30
0.0
 10
2050.5
 20
1130.94995117188
 30
0.0
 10
2050.5
 20
1131.59997558594
 30
0.0
 10
2050.5
 20
1131.59997558594
 30
0.0
 10
2050.5
 20
1132.34558105469
 30
0.0
 10
2051.1044921875
 20
1132.94995117188
 30
0.0
 10
2051.85009765625
 20
1132.94995117188
 30
0.0
 10
2051.85009765625
 20
1132.94995117188
 30
0.0
 10
2054.85009765625
 20
1132.94995117188
 30
0.0
 10
2054.85009765625
 20
1132.94995117188
 30
0.0
 10
2055.595703125
 20
1132.94995117188
 30
0.0
 10
2056.19995117188
 20
1132.34558105469
 30
0.0
 10
2056.19995117188
 20
1131.59997558594
 30
0.0
 10
2056.19995117188
 20
1131.59997558594
 30
0.0
 10
2056.19995117188
 20
1130.94995117188
 30
0.0
 10
2056.19995117188
 20
1130.94995117188
 30
0.0
 10
2056.19995117188
 20
1130.20446777344
 30
0.0
 10
2056.80444335938
 20
1129.59997558594
 30
0.0
 10
2057.55004882813
 20
1129.59997558594
 30
0.0
 10
2057.55004882813
 20
1129.59997558594
 30
0.0
 10
2067.77978515625
 20
1129.59997558594
 30
0.0
 10
2067.77978515625
 20
1129.59997558594
 30
0.0
 10
2068.05224609375
 20
1129.59997558594
 30
0.0
 10
2068.31274414063
 20
1129.48889160156
 30
0.0
 10
2068.50146484375
 20
1129.29235839844
 30
0.0
 10
2068.92578125
 20
1128.84997558594
 30
0.0
 10
2069.51220703125
 20
1128.59997558594
 30
0.0
 10
2070.125
 20
1128.59997558594
 30
0.0
 10
2070.125
 20
1128.59997558594
 30
0.0
 10
2072.125
 20
1128.59997558594
 30
0.0
 10
2072.125
 20
1128.59997558594
 30
0.0
 10
2072.95336914063
 20
1128.59997558594
 30
0.0
 10
2073.625
 20
1127.92846679688
 30
0.0
 10
2073.625
 20
1127.09997558594
 30
0.0
 10
2073.625
 20
1127.09997558594
 30
0.0
 10
2073.625
 20
1033.900024414061
 30
0.0
 10
2073.625
 20
1033.900024414061
 30
0.0
 10
2073.625
 20
1033.07153320313
 30
0.0
 10
2072.95336914063
 20
1032.400024414061
 30
0.0
 10
2072.125
 20
1032.400024414061
 30
0.0
 10
2072.125
 20
1032.400024414061
 30
0.0
 10
2070.125
 20
1032.400024414061
 30
0.0
 10
2070.125
 20
1032.400024414061
 30
0.0
 10
2069.51220703125
 20
1032.400024414061
 30
0.0
 10
2068.92578125
 20
1032.150024414061
 30
0.0
 10
2068.50146484375
 20
1031.707641601561
 30
0.0
  0
ENDBLK
  5
61
330
5E
100
AcDbEntity
  8
0
100
AcDbBlockEnd
  0
BLOCK
  5
66
330
64
100
AcDbEntity
  8
0
100
AcDbBlockBegin
  2
block 9
 70
     0
 10
0.0
 20
0.0
 30
0.0
  3
block 9
  1

  0
POLYLINE
  5
68
330
64
100
AcDbEntity
  8
0
 62
   132
420
  1882579
370
     5
100
AcDb2dPolyline
 66
     1
 10
0.0
 20
0.0
 30
0.0
  0
VERTEX
  5
69
330
68
100
AcDbEntity
  8
0
 62
   132
420
  1882579
370
     5
100
AcDbVertex
100
AcDb2dVertex
 10
2056.25
 20
1130.85
 30
0.0
  0
VERTEX
  5
6A
330
68
100
AcDbEntity
  8
0
 62
   132
420
  1882579
370
     5
100
AcDbVertex
100
AcDb2dVertex
 10
2050.495212666676
 20
1130.85
 30
0.0
  0
VERTEX
  5
6B
330
68
100
AcDbEntity
  8
0
 62
   132
420
  1882579
370
     5
100
AcDbVertex
100
AcDb2dVertex
 10
2050.495212666676
 20
1128.75004882812
 30
0.0
  0
VERTEX
  5
6C
330
68
100
AcDbEntity
  8
0
 62
   132
420
  1882579
370
     5
100
AcDbVertex
100
AcDb2dVertex
 10
2056.25
 20
1128.75004882812
 30
0.0
  0
VERTEX
  5
6D
330
68
100
AcDbEntity
  8
0
 62
   132
420
  1882579
370
     5
100
AcDbVertex
100
AcDb2dVertex
 10
2056.25
 20
1130.85
 30
0.0
  0
SEQEND
  5
6E
330
68
100
AcDbEntity
  8
0
 62
   132
420
  1882579
370
     5
  0
SPLINE
  5
6F
330
64
100
AcDbEntity
  8
0
 62
     7
420
 16777215
370
    25
100
AcDbSpline
210
0.0
220
0.0
230
1.0
 70
    11
 71
     3
 72
   257
 73
   253
 74
     0
 42
0.0000000001
 43
0.0000000001
 12
1.0
 22
0.0
 32
0.0
 13
1.0
 23
0.0
 33
0.0
 40
0.0
 40
0.0
 40
0.0
 40
0.0
 40
1.0
 40
1.0
 40
1.0
 40
2.0
 40
2.0
 40
2.0
 40
3.0
 40
3.0
 40
3.0
 40
4.0
 40
4.0
 40
4.0
 40
5.0
 40
5.0
 40
5.0
 40
6.0
 40
6.0
 40
6.0
 40
7.0
 40
7.0
 40
7.0
 40
8.0
 40
8.0
 40
8.0
 40
9.0
 40
9.0
 40
9.0
 40
10.0
 40
10.0
 40
10.0
 40
11.0
 40
11.0
 40
11.0
 40
12.0
 40
12.0
 40
12.0
 40
13.0
 40
13.0
 40
13.0
 40
14.0
 40
14.0
 40
14.0
 40
15.0
 40
15.0
 40
15.0
 40
16.0
 40
16.0
 40
16.0
 40
17.0
 40
17.0
 40
17.0
 40
18.0
 40
18.0
 40
18.0
 40
19.0
 40
19.0
 40
19.0
 40
20.0
 40
20.0
 40
20.0
 40
21.0
 40
21.0
 40
21.0
 40
22.0
 40
22.0
 40
22.0
 40
23.0
 40
23.0
 40
23.0
 40
24.0
 40
24.0
 40
24.0
 40
25.0
 40
25.0
 40
25.0
 40
26.0
 40
26.0
 40
26.0
 40
27.0
 40
27.0
 40
27.0
 40
28.0
 40
28.0
 40
28.0
 40
29.0
 40
29.0
 40
29.0
 40
30.0
 40
30.0
 40
30.0
 40
31.0
 40
31.0
 40
31.0
 40
32.0
 40
32.0
 40
32.0
 40
33.0
 40
33.0
 40
33.0
 40
34.0
 40
34.0
 40
34.0
 40
35.0
 40
35.0
 40
35.0
 40
36.0
 40
36.0
 40
36.0
 40
37.0
 40
37.0
 40
37.0
 40
38.0
 40
38.0
 40
38.0
 40
39.0
 40
39.0
 40
39.0
 40
40.0
 40
40.0
 40
40.0
 40
41.0
 40
41.0
 40
41.0
 40
42.0
 40
42.0
 40
42.0
 40
43.0
 40
43.0
 40
43.0
 40
44.0
 40
44.0
 40
44.0
 40
45.0
 40
45.0
 40
45.0
 40
46.0
 40
46.0
 40
46.0
 40
47.0
 40
47.0
 40
47.0
 40
48.0
 40
48.0
 40
48.0
 40
49.0
 40
49.0
 40
49.0
 40
50.0
 40
50.0
 40
50.0
 40
51.0
 40
51.0
 40
51.0
 40
52.0
 40
52.0
 40
52.0
 40
53.0
 40
53.0
 40
53.0
 40
54.0
 40
54.0
 40
54.0
 40
55.0
 40
55.0
 40
55.0
 40
56.0
 40
56.0
 40
56.0
 40
57.0
 40
57.0
 40
57.0
 40
58.0
 40
58.0
 40
58.0
 40
59.0
 40
59.0
 40
59.0
 40
60.0
 40
60.0
 40
60.0
 40
61.0
 40
61.0
 40
61.0
 40
62.0
 40
62.0
 40
62.0
 40
63.0
 40
63.0
 40
63.0
 40
64.0
 40
64.0
 40
64.0
 40
65.0
 40
65.0
 40
65.0
 40
66.0
 40
66.0
 40
66.0
 40
67.0
 40
67.0
 40
67.0
 40
68.0
 40
68.0
 40
68.0
 40
69.0
 40
69.0
 40
69.0
 40
70.0
 40
70.0
 40
70.0
 40
71.0
 40
71.0
 40
71.0
 40
72.0
 40
72.0
 40
72.0
 40
73.0
 40
73.0
 40
73.0
 40
74.0
 40
74.0
 40
74.0
 40
75.0
 40
75.0
 40
75.0
 40
76.0
 40
76.0
 40
76.0
 40
77.0
 40
77.0
 40
77.0
 40
78.0
 40
78.0
 40
78.0
 40
79.0
 40
79.0
 40
79.0
 40
80.0
 40
80.0
 40
80.0
 40
81.0
 40
81.0
 40
81.0
 40
82.0
 40
82.0
 40
82.0
 40
83.0
 40
83.0
 40
83.0
 40
84.0
 40
84.0
 40
84.0
 40
84.0
 10
2050.4951171875
 20
1129.599975585938
 30
0.0
 10
2050.4951171875
 20
1129.599975585938
 30
0.0
 10
1972.386840820312
 20
1129.599975585938
 30
0.0
 10
1972.386840820312
 20
1129.599975585938
 30
0.0
 10
1972.302124023438
 20
1129.599731445312
 30
0.0
 10
1972.161865234375
 20
1129.588500976562
 30
0.0
 10
1972.004272460938
 20
1129.523193359375
 30
0.0
 10
1971.836669921875
 20
1129.453735351562
 30
0.0
 10
1971.725341796875
 20
1129.3544921875
 30
0.0
 10
1971.665283203125
 20
1129.292358398438
 30
0.0
 10
1971.559448242188
 20
1129.182495117188
 30
0.0
 10
1970.992309570312
 20
1128.61669921875
 30
0.0
 10
1970.081298828125
 20
1128.600708007812
 30
0.0
 10
1969.121704101562
 20
1128.583862304688
 30
0.0
 10
1968.516845703125
 20
1129.18994140625
 30
0.0
 10
1968.418090820312
 20
1129.292358398438
 30
0.0
 10
1968.351684570312
 20
1129.360473632812
 30
0.0
 10
1968.223754882812
 20
1129.473022460938
 30
0.0
 10
1968.02978515625
 20
1129.541870117188
 30
0.0
 10
1967.896850585938
 20
1129.589111328125
 30
0.0
 10
1967.778442382812
 20
1129.599487304688
 30
0.0
 10
1967.696411132812
 20
1129.599975585938
 30
0.0
 10
1967.696411132812
 20
1129.599975585938
 30
0.0
 10
1922.87744140625
 20
1129.599975585938
 30
0.0
 10
1922.87744140625
 20
1129.599975585938
 30
0.0
 10
1922.87744140625
 20
1129.599975585938
 30
0.0
 10
1922.87744140625
 20
1128.75
 30
0.0
 10
1922.87744140625
 20
1128.75
 30
0.0
 10
1922.87744140625
 20
1128.75
 30
0.0
 10
1917.12255859375
 20
1128.75
 30
0.0
 10
1917.12255859375
 20
1128.75
 30
0.0
 10
1917.12255859375
 20
1128.75
 30
0.0
 10
1917.12255859375
 20
1129.599975585938
 30
0.0
 10
1917.12255859375
 20
1129.599975585938
 30
0.0
 10
1917.12255859375
 20
1129.599975585938
 30
0.0
 10
1872.303466796875
 20
1129.599975585938
 30
0.0
 10
1872.303466796875
 20
1129.599975585938
 30
0.0
 10
1872.21875
 20
1129.599731445312
 30
0.0
 10
1872.078491210938
 20
1129.588500976562
 30
0.0
 10
1871.9208984375
 20
1129.523193359375
 30
0.0
 10
1871.753295898438
 20
1129.453735351562
 30
0.0
 10
1871.641967773438
 20
1129.3544921875
 30
0.0
 10
1871.581909179688
 20
1129.292358398438
 30
0.0
 10
1871.47607421875
 20
1129.182495117188
 30
0.0
 10
1870.908935546875
 20
1128.61669921875
 30
0.0
 10
1869.997924804688
 20
1128.600708007812
 30
0.0
 10
1869.038330078125
 20
1128.583862304688
 30
0.0
 10
1868.433471679688
 20
1129.18994140625
 30
0.0
 10
1868.334716796875
 20
1129.292358398438
 30
0.0
 10
1868.268310546875
 20
1129.360473632812
 30
0.0
 10
1868.140380859375
 20
1129.473022460938
 30
0.0
 10
1867.946411132812
 20
1129.541870117188
 30
0.0
 10
1867.8134765625
 20
1129.589111328125
 30
0.0
 10
1867.695068359375
 20
1129.599487304688
 30
0.0
 10
1867.613037109375
 20
1129.599975585938
 30
0.0
 10
1867.613037109375
 20
1129.599975585938
 30
0.0
 10
1808.577392578125
 20
1129.599975585938
 30
0.0
 10
1808.577392578125
 20
1129.599975585938
 30
0.0
 10
1808.577392578125
 20
1129.599975585938
 30
0.0
 10
1808.577392578125
 20
1128.75
 30
0.0
 10
1808.577392578125
 20
1128.75
 30
0.0
 10
1808.577392578125
 20
1128.75
 30
0.0
 10
1802.822509765625
 20
1128.75
 30
0.0
 10
1802.822509765625
 20
1128.75
 30
0.0
 10
1802.822509765625
 20
1128.75
 30
0.0
 10
1802.822509765625
 20
1129.599975585938
 30
0.0
 10
1802.822509765625
 20
1129.599975585938
 30
0.0
 10
1802.822509765625
 20
1129.599975585938
 30
0.0
 10
1772.22021484375
 20
1129.599975585938
 30
0.0
 10
1772.22021484375
 20
1129.599975585938
 30
0.0
 10
1772.13623046875
 20
1129.599975585938
 30
0.0
 10
1772.000244140625
 20
1129.58935546875
 30
0.0
 10
1771.84716796875
 20
1129.52783203125
 30
0.0
 10
1771.673828125
 20
1129.458129882812
 30
0.0
 10
1771.559326171875
 20
1129.355590820312
 30
0.0
 10
1771.49853515625
 20
1129.292358398438
 30
0.0
 10
1771.3671875
 20
1129.15576171875
 30
0.0
 10
1771.135498046875
 20
1128.948608398438
 30
0.0
 10
1770.79150390625
 20
1128.795166015625
 30
0.0
 10
1770.41162109375
 20
1128.625732421875
 30
0.0
 10
1770.07080078125
 20
1128.60009765625
 30
0.0
 10
1769.875
 20
1128.599975585938
 30
0.0
 10
1769.208251953125
 20
1128.599975585938
 30
0.0
 10
1768.541748046875
 20
1128.599975585938
 30
0.0
 10
1767.875
 20
1128.599975585938
 30
0.0
 10
1767.751708984375
 20
1128.59912109375
 30
0.0
 10
1767.286865234375
 20
1128.58154296875
 30
0.0
 10
1766.88330078125
 20
1128.225341796875
 30
0.0
 10
1766.39208984375
 20
1127.791870117188
 30
0.0
 10
1766.3759765625
 20
1127.196411132812
 30
0.0
 10
1766.375
 20
1127.099975585938
 30
0.0
 10
1766.375
 20
1127.099975585938
 30
0.0
 10
1766.375
 20
1033.90283203125
 30
0.0
 10
1766.375
 20
1033.90283203125
 30
0.0
 10
1766.3759765625
 20
1033.806396484375
 30
0.0
 10
1766.39208984375
 20
1033.2109375
 30
0.0
 10
1766.88330078125
 20
1032.777465820312
 30
0.0
 10
1767.286865234375
 20
1032.421264648438
 30
0.0
 10
1767.751708984375
 20
1032.403686523438
 30
0.0
 10
1767.875
 20
1032.40283203125
 30
0.0
 10
1768.541748046875
 20
1032.40283203125
 30
0.0
 10
1769.208251953125
 20
1032.40283203125
 30
0.0
 10
1769.875
 20
1032.40283203125
 30
0.0
 10
1770.07080078125
 20
1032.402709960938
 30
0.0
 10
1770.41162109375
 20
1032.377075195312
 30
0.0
 10
1770.79150390625
 20
1032.207641601562
 30
0.0
 10
1771.135498046875
 20
1032.05419921875
 30
0.0
 10
1771.3671875
 20
1031.847045898438
 30
0.0
 10
1771.49853515625
 20
1031.71044921875
 30
0.0
 10
1771.559326171875
 20
1031.647216796875
 30
0.0
 10
1771.673828125
 20
1031.544677734375
 30
0.0
 10
1771.84716796875
 20
1031.474975585938
 30
0.0
 10
1772.000244140625
 20
1031.413452148438
 30
0.0
 10
1772.13623046875
 20
1031.40283203125
 30
0.0
 10
1772.22021484375
 20
1031.40283203125
 30
0.0
 10
1772.22021484375
 20
1031.40283203125
 30
0.0
 10
1788.535034179688
 20
1031.400024414062
 30
0.0
 10
1788.535034179688
 20
1031.400024414062
 30
0.0
 10
1788.535034179688
 20
1031.400024414062
 30
0.0
 10
1788.535034179688
 20
1032.25
 30
0.0
 10
1788.535034179688
 20
1032.25
 30
0.0
 10
1788.535034179688
 20
1032.25
 30
0.0
 10
1794.289916992188
 20
1032.25
 30
0.0
 10
1794.289916992188
 20
1032.25
 30
0.0
 10
1794.289916992188
 20
1032.25
 30
0.0
 10
1794.289916992188
 20
1031.400024414062
 30
0.0
 10
1794.289916992188
 20
1031.400024414062
 30
0.0
 10
1794.289916992188
 20
1031.400024414062
 30
0.0
 10
1867.613159179688
 20
1031.400024414062
 30
0.0
 10
1867.613159179688
 20
1031.400024414062
 30
0.0
 10
1867.697387695312
 20
1031.400146484375
 30
0.0
 10
1867.83447265625
 20
1031.410766601562
 30
0.0
 10
1867.988647460938
 20
1031.473266601562
 30
0.0
 10
1868.160522460938
 20
1031.54296875
 30
0.0
 10
1868.274169921875
 20
1031.644775390625
 30
0.0
 10
1868.334716796875
 20
1031.707641601562
 30
0.0
 10
1868.434326171875
 20
1031.811279296875
 30
0.0
 10
1869.015380859375
 20
1032.396606445312
 30
0.0
 10
1869.950317382812
 20
1032.39990234375
 30
0.0
 10
1870.89453125
 20
1032.403198242188
 30
0.0
 10
1871.483154296875
 20
1031.810546875
 30
0.0
 10
1871.581909179688
 20
1031.707641601562
 30
0.0
 10
1871.640502929688
 20
1031.646728515625
 30
0.0
 10
1871.74609375
 20
1031.552490234375
 30
0.0
 10
1871.903564453125
 20
1031.483764648438
 30
0.0
 10
1872.0693359375
 20
1031.411376953125
 30
0.0
 10
1872.217651367188
 20
1031.400146484375
 30
0.0
 10
1872.303588867188
 20
1031.400024414062
 30
0.0
 10
1872.303588867188
 20
1031.400024414062
 30
0.0
 10
1917.12255859375
 20
1031.400024414062
 30
0.0
 10
1917.12255859375
 20
1031.400024414062
 30
0.0
 10
1917.12255859375
 20
1031.400024414062
 30
0.0
 10
1917.12255859375
 20
1032.25
 30
0.0
 10
1917.12255859375
 20
1032.25
 30
0.0
 10
1917.12255859375
 20
1032.25
 30
0.0
 10
1922.87744140625
 20
1032.25
 30
0.0
 10
1922.87744140625
 20
1032.25
 30
0.0
 10
1922.87744140625
 20
1032.25
 30
0.0
 10
1922.87744140625
 20
1031.400024414062
 30
0.0
 10
1922.87744140625
 20
1031.400024414062
 30
0.0
 10
1922.87744140625
 20
1031.400024414062
 30
0.0
 10
1967.696411132812
 20
1031.400024414062
 30
0.0
 10
1967.696411132812
 20
1031.400024414062
 30
0.0
 10
1967.780639648438
 20
1031.400024414062
 30
0.0
 10
1967.91943359375
 20
1031.410766601562
 30
0.0
 10
1968.075439453125
 20
1031.474609375
 30
0.0
 10
1968.245483398438
 20
1031.544311523438
 30
0.0
 10
1968.358032226562
 20
1031.645141601562
 30
0.0
 10
1968.418090820312
 20
1031.707641601562
 30
0.0
 10
1968.516845703125
 20
1031.810546875
 30
0.0
 10
1969.10546875
 20
1032.403198242188
 30
0.0
 10
1970.049682617188
 20
1032.39990234375
 30
0.0
 10
1970.984619140625
 20
1032.396606445312
 30
0.0
 10
1971.565673828125
 20
1031.811279296875
 30
0.0
 10
1971.665283203125
 20
1031.707641601562
 30
0.0
 10
1971.723876953125
 20
1031.646728515625
 30
0.0
 10
1971.83056640625
 20
1031.55126953125
 30
0.0
 10
1971.990234375
 20
1031.482299804688
 30
0.0
 10
1972.154663085938
 20
1031.411254882812
 30
0.0
 10
1972.301513671875
 20
1031.400146484375
 30
0.0
 10
1972.386840820312
 20
1031.400024414062
 30
0.0
 10
1972.386840820312
 20
1031.400024414062
 30
0.0
 10
2050.472558593749
 20
1031.400024414061
 30
0.0
 10
2050.472558593749
 20
1031.400024414061
 30
0.0
 10
2050.472558593749
 20
1031.400024414061
 30
0.0
 10
2050.472558593749
 20
1032.249999999998
 30
0.0
 10
2050.472558593749
 20
1032.249999999998
 30
0.0
 10
2050.472558593749
 20
1032.249999999998
 30
0.0
 10
2056.227441406249
 20
1032.249999999998
 30
0.0
 10
2056.227441406249
 20
1032.249999999998
 30
0.0
 10
2056.227441406249
 20
1032.249999999998
 30
0.0
 10
2056.227441406249
 20
1031.400024414061
 30
0.0
 10
2056.227441406249
 20
1031.400024414061
 30
0.0
 10
2056.227441406249
 20
1031.400024414061
 30
0.0
 10
2067.77978515625
 20
1031.402777777779
 30
0.0
 10
2067.77978515625
 20
1031.402777777779
 30
0.0
 10
2067.86376953125
 20
1031.402777777779
 30
0.0
 10
2067.999755859375
 20
1031.413397894967
 30
0.0
 10
2068.15283203125
 20
1031.474921332467
 30
0.0
 10
2068.326171875
 20
1031.544623480904
 30
0.0
 10
2068.440673828125
 20
1031.647162543404
 30
0.0
 10
2068.50146484375
 20
1031.710394965279
 30
0.0
 10
2068.6328125
 20
1031.846991644967
 30
0.0
 10
2068.864501953125
 20
1032.054144965279
 30
0.0
 10
2069.20849609375
 20
1032.207587348092
 30
0.0
 10
2069.58837890625
 20
1032.377020941842
 30
0.0
 10
2069.92919921875
 20
1032.402655707467
 30
0.0
 10
2070.125
 20
1032.402777777779
 30
0.0
 10
2070.791748046875
 20
1032.402777777779
 30
0.0
 10
2071.458251953125
 20
1032.402777777779
 30
0.0
 10
2072.125
 20
1032.402777777779
 30
0.0
 10
2072.248291015625
 20
1032.403632269967
 30
0.0
 10
2072.713134765625
 20
1032.421210394967
 30
0.0
 10
2073.11669921875
 20
1032.777411566842
 30
0.0
 10
2073.60791015625
 20
1033.210883246529
 30
0.0
 10
2073.6240234375
 20
1033.806342230904
 30
0.0
 10
2073.625
 20
1033.902777777779
 30
0.0
 10
2073.625
 20
1033.902777777779
 30
0.0
 10
2073.625
 20
1127.099975585938
 30
0.0
 10
2073.625
 20
1127.099975585938
 30
0.0
 10
2073.6240234375
 20
1127.196411132812
 30
0.0
 10
2073.60791015625
 20
1127.791870117188
 30
0.0
 10
2073.11669921875
 20
1128.225341796875
 30
0.0
 10
2072.713134765625
 20
1128.58154296875
 30
0.0
 10
2072.248291015625
 20
1128.59912109375
 30
0.0
 10
2072.125
 20
1128.599975585938
 30
0.0
 10
2071.458251953125
 20
1128.599975585938
 30
0.0
 10
2070.791748046875
 20
1128.599975585938
 30
0.0
 10
2070.125
 20
1128.599975585938
 30
0.0
 10
2069.92919921875
 20
1128.60009765625
 30
0.0
 10
2069.58837890625
 20
1128.625732421875
 30
0.0
 10
2069.20849609375
 20
1128.795166015625
 30
0.0
 10
2068.864501953125
 20
1128.948608398438
 30
0.0
 10
2068.6328125
 20
1129.15576171875
 30
0.0
 10
2068.50146484375
 20
1129.292358398438
 30
0.0
 10
2068.440673828125
 20
1129.355590820312
 30
0.0
 10
2068.326171875
 20
1129.458129882812
 30
0.0
 10
2068.15283203125
 20
1129.52783203125
 30
0.0
 10
2067.999755859375
 20
1129.58935546875
 30
0.0
 10
2067.86376953125
 20
1129.599975585938
 30
0.0
 10
2067.77978515625
 20
1129.599975585938
 30
0.0
 10
2067.77978515625
 20
1129.599975585938
 30
0.0
 10
2056.25
 20
1129.599975585938
 30
0.0
 10
2056.25
 20
1129.599975585938
 30
0.0
 10
2056.25
 20
1129.599975585938
 30
0.0
 10
2056.25
 20
1128.75
 30
0.0
 10
2056.25
 20
1128.75
 30
0.0
 10
2056.25
 20
1128.75
 30
0.0
 10
2050.4951171875
 20
1128.75
 30
0.0
 10
2050.4951171875
 20
1128.75
 30
0.0
 10
2050.4951171875
 20
1128.75
 30
0.0
 10
2050.4951171875
 20
1129.599975585938
 30
0.0
 10
2050.4951171875
 20
1129.599975585938
 30
0.0
  0
POLYLINE
  5
70
330
64
100
AcDbEntity
  8
0
 62
     7
420
 16777215
370
    25
100
AcDb2dPolyline
 66
     1
 10
0.0
 20
0.0
 30
0.0
  0
VERTEX
  5
71
330
70
100
AcDbEntity
  8
0
 62
     7
420
 16777215
370
    25
100
AcDbVertex
100
AcDb2dVertex
 10
2050.4951171875
 20
1129.599975585938
 30
0.0
  0
VERTEX
  5
73
330
70
100
AcDbEntity
  8
0
100
AcDbVertex
100
AcDb2dVertex
 10
2050.4951171875
 20
1129.599975585938
 30
0.0
  0
SEQEND
  5
72
330
70
100
AcDbEntity
  8
0
 62
     7
420
 16777215
370
    25
  0
ENDBLK
  5
67
330
64
100
AcDbEntity
  8
0
100
AcDbBlockEnd
  0
ENDSEC
  0
SECTION
  2
ENTITIES
  0
INSERT
  5
41
330
1F
100
AcDbEntity
  8
0
100
AcDbBlockReference
  2
block 2
 10
0.0
 20
0.0
 30
0.0
  0
INSERT
  5
46
330
1F
100
AcDbEntity
  8
0
100
AcDbBlockReference
  2
block 3
 10
0.0
 20
0.0
 30
0.0
  0
INSERT
  5
4B
330
1F
100
AcDbEntity
  8
0
100
AcDbBlockReference
  2
block 4
 10
0.0
 20
0.0
 30
0.0
  0
INSERT
  5
50
330
1F
100
AcDbEntity
  8
0
100
AcDbBlockReference
  2
block 5
 10
0.0
 20
0.0
 30
0.0
  0
INSERT
  5
55
330
1F
100
AcDbEntity
  8
0
100
AcDbBlockReference
  2
block 6
 10
0.0
 20
0.0
 30
0.0
  0
INSERT
  5
5A
330
1F
100
AcDbEntity
  8
0
100
AcDbBlockReference
  2
block 7
 10
0.0
 20
0.0
 30
0.0
  0
INSERT
  5
5F
330
1F
100
AcDbEntity
  8
0
100
AcDbBlockReference
  2
block 8
 10
0.0
 20
0.0
 30
0.0
  0
SPLINE
  5
63
330
1F
100
AcDbEntity
  8
0
 62
     7
420
 16777215
370
    25
100
AcDbSpline
210
0.0
220
0.0
230
1.0
 70
    11
 71
     3
 72
    29
 73
    25
 74
     0
 42
0.0000000001
 43
0.0000000001
 12
1.0
 22
0.0
 32
0.0
 13
1.0
 23
0.0
 33
0.0
 40
0.0
 40
0.0
 40
0.0
 40
0.0
 40
1.0
 40
1.0
 40
1.0
 40
2.0
 40
2.0
 40
2.0
 40
3.0
 40
3.0
 40
3.0
 40
4.0
 40
4.0
 40
4.0
 40
5.0
 40
5.0
 40
5.0
 40
6.0
 40
6.0
 40
6.0
 40
7.0
 40
7.0
 40
7.0
 40
8.0
 40
8.0
 40
8.0
 40
8.0
 10
2072.377314814819
 20
1024.75
 30
0.0
 10
2072.377314814819
 20
1024.75
 30
0.0
 10
1767.62268518518
 20
1024.75
 30
0.0
 10
1767.62268518518
 20
1024.75
 30
0.0
 10
1764.86253987295
 20
1024.75
 30
0.0
 10
1762.625
 20
1026.987539872949
 30
0.0
 10
1762.625
 20
1029.747685185181
 30
0.0
 10
1762.625
 20
1029.747685185181
 30
0.0
 10
1762.625
 20
1131.25231481482
 30
0.0
 10
1762.625
 20
1131.25231481482
 30
0.0
 10
1762.625
 20
1134.01246012705
 30
0.0
 10
1764.86253987295
 20
1136.25
 30
0.0
 10
1767.62268518518
 20
1136.25
 30
0.0
 10
1767.62268518518
 20
1136.25
 30
0.0
 10
2072.377314814819
 20
1136.25
 30
0.0
 10
2072.377314814819
 20
1136.25
 30
0.0
 10
2075.137460127051
 20
1136.25
 30
0.0
 10
2077.375
 20
1134.01246012705
 30
0.0
 10
2077.375
 20
1131.25231481482
 30
0.0
 10
2077.375
 20
1131.25231481482
 30
0.0
 10
2077.375
 20
1029.747685185181
 30
0.0
 10
2077.375
 20
1029.747685185181
 30
0.0
 10
2077.375
 20
1026.987539872949
 30
0.0
 10
2075.137460127051
 20
1024.75
 30
0.0
 10
2072.377314814819
 20
1024.75
 30
0.0
  0
INSERT
  5
65
330
1F
100
AcDbEntity
  8
0
100
AcDbBlockReference
  2
block 9
 10
0.0
 20
0.0
 30
0.0
  0
ENDSEC
  0
SECTION
  2
OBJECTS
  0
DICTIONARY
  5
C
330
0
100
AcDbDictionary
281
     1
  3
ACAD_GROUP
350
D
  3
ACAD_LAYOUT
350
1A
  3
ACAD_MATERIAL
350
3B
  3
ACAD_MLEADERSTYLE
350
75
  3
ACAD_MLINESTYLE
350
17
  3
ACAD_PLOTSETTINGS
350
19
  3
ACAD_PLOTSTYLENAME
350
E
  3
ACAD_TABLESTYLE
350
74
  3
ACAD_VISUALSTYLE
350
2A
  0
SUN
  5
3F
330
29
100
AcDbSun
 90
        1
290
     0
 63
     7
421
 16777215
 40
1.0
291
     1
 91
  2455826
 92
 54000000
292
     0
 70
     2
 71
   256
280
     1
  0
DICTIONARY
  5
D
102
{ACAD_REACTORS
330
C
102
}
330
C
100
AcDbDictionary
281
     1
  0
DICTIONARY
  5
1A
102
{ACAD_REACTORS
330
C
102
}
330
C
100
AcDbDictionary
281
     1
  3
Layout1
350
1E
  3
Layout2
350
26
  3
Model
350
22
  0
DICTIONARY
  5
3B
102
{ACAD_REACTORS
330
C
102
}
330
C
100
AcDbDictionary
281
     1
  3
ByBlock
350
3D
  3
ByLayer
350
3C
  3
Global
350
3E
  0
DICTIONARY
  5
75
102
{ACAD_REACTORS
330
C
102
}
330
C
100
AcDbDictionary
281
     1
  0
DICTIONARY
  5
17
102
{ACAD_REACTORS
330
C
102
}
330
C
100
AcDbDictionary
281
     1
  3
Standard
350
18
  0
DICTIONARY
  5
19
102
{ACAD_REACTORS
330
C
102
}
330
C
100
AcDbDictionary
281
     1
  0
ACDBDICTIONARYWDFLT
  5
E
102
{ACAD_REACTORS
330
C
102
}
330
C
100
AcDbDictionary
281
     1
  3
Normal
350
F
100
AcDbDictionaryWithDefault
340
F
  0
DICTIONARY
  5
74
102
{ACAD_REACTORS
330
C
102
}
330
C
100
AcDbDictionary
281
     1
  0
DICTIONARY
  5
2A
102
{ACAD_REACTORS
330
C
102
}
330
C
100
AcDbDictionary
281
     1
  3
2dWireframe
350
2F
  3
3D Hidden
350
31
  3
3dWireframe
350
30
  3
Basic
350
32
  3
Brighten
350
36
  3
ColorChange
350
3A
  3
Conceptual
350
34
  3
Dim
350
35
  3
Facepattern
350
39
  3
Flat
350
2B
  3
FlatWithEdges
350
2C
  3
Gouraud
350
2D
  3
GouraudWithEdges
350
2E
  3
Linepattern
350
38
  3
Realistic
350
33
  3
Thicken
350
37
  0
LAYOUT
  5
1E
102
{ACAD_REACTORS
330
1A
102
}
330
1A
100
AcDbPlotSettings
  1

  2
none_device
  4

  6

 40
0.0
 41
0.0
 42
0.0
 43
0.0
 44
0.0
 45
0.0
 46
0.0
 47
0.0
 48
0.0
 49
0.0
140
0.0
141
0.0
142
1.0
143
1.0
 70
   688
 72
     0
 73
     0
 74
     5
  7

 75
    16
 76
     0
 77
     2
 78
   300
147
1.0
148
0.0
149
0.0
100
AcDbLayout
  1
Layout1
 70
     1
 71
     1
 10
0.0
 20
0.0
 11
12.0
 21
9.0
 12
0.0
 22
0.0
 32
0.0
 14
1.000000000000000E+20
 24
1.000000000000000E+20
 34
1.000000000000000E+20
 15
-1.000000000000000E+20
 25
-1.000000000000000E+20
 35
-1.000000000000000E+20
146
0.0
 13
0.0
 23
0.0
 33
0.0
 16
1.0
 26
0.0
 36
0.0
 17
0.0
 27
1.0
 37
0.0
 76
     0
330
1B
  0
LAYOUT
  5
26
102
{ACAD_REACTORS
330
1A
102
}
330
1A
100
AcDbPlotSettings
  1

  2
none_device
  4

  6

 40
0.0
 41
0.0
 42
0.0
 43
0.0
 44
0.0
 45
0.0
 46
0.0
 47
0.0
 48
0.0
 49
0.0
140
0.0
141
0.0
142
1.0
143
1.0
 70
   688
 72
     0
 73
     0
 74
     5
  7

 75
    16
 76
     0
 77
     2
 78
   300
147
1.0
148
0.0
149
0.0
100
AcDbLayout
  1
Layout2
 70
     1
 71
     2
 10
0.0
 20
0.0
 11
0.0
 21
0.0
 12
0.0
 22
0.0
 32
0.0
 14
0.0
 24
0.0
 34
0.0
 15
0.0
 25
0.0
 35
0.0
146
0.0
 13
0.0
 23
0.0
 33
0.0
 16
1.0
 26
0.0
 36
0.0
 17
0.0
 27
1.0
 37
0.0
 76
     0
330
23
  0
LAYOUT
  5
22
102
{ACAD_REACTORS
330
1A
102
}
330
1A
100
AcDbPlotSettings
  1

  2
none_device
  4

  6

 40
0.0
 41
0.0
 42
0.0
 43
0.0
 44
0.0
 45
0.0
 46
0.0
 47
0.0
 48
0.0
 49
0.0
140
0.0
141
0.0
142
1.0
143
1.0
 70
  1712
 72
     0
 73
     0
 74
     0
  7

 75
     0
 76
     0
 77
     2
 78
   300
147
1.0
148
0.0
149
0.0
100
AcDbLayout
  1
Model
 70
     1
 71
     0
 10
0.0
 20
0.0
 11
12.0
 21
9.0
 12
0.0
 22
0.0
 32
0.0
 14
1.000000000000000E+20
 24
1.000000000000000E+20
 34
1.000000000000000E+20
 15
-1.000000000000000E+20
 25
-1.000000000000000E+20
 35
-1.000000000000000E+20
146
0.0
 13
0.0
 23
0.0
 33
0.0
 16
1.0
 26
0.0
 36
0.0
 17
0.0
 27
1.0
 37
0.0
 76
     0
330
1F
331
29
  0
MATERIAL
  5
3D
102
{ACAD_REACTORS
330
3B
102
}
330
3B
100
AcDbMaterial
  1
ByBlock
 72
     1
 94
      127
  0
MATERIAL
  5
3C
102
{ACAD_REACTORS
330
3B
102
}
330
3B
100
AcDbMaterial
  1
ByLayer
 72
     1
 94
      127
  0
MATERIAL
  5
3E
102
{ACAD_REACTORS
330
3B
102
}
330
3B
100
AcDbMaterial
  1
Global
 72
     1
 94
      127
  0
MLINESTYLE
  5
18
102
{ACAD_REACTORS
330
17
102
}
330
17
100
AcDbMlineStyle
  2
Standard
 70
     0
  3

 62
   256
 51
90.0
 52
90.0
 71
     2
 49
0.5
 62
   256
  6
BYLAYER
 49
-0.5
 62
   256
  6
BYLAYER
  0
ACDBPLACEHOLDER
  5
F
102
{ACAD_REACTORS
330
E
102
}
330
E
  0
VISUALSTYLE
  5
2F
102
{ACAD_REACTORS
330
2A
102
}
330
2A
100
AcDbVisualStyle
  2
2dWireframe
 70
     4
177
     2
291
     0
 71
     0
176
     1
 72
     2
176
     1
 73
     0
176
     1
 90
        0
176
     1
 40
-0.6
176
     1
 41
-30.0
176
     1
 62
     5
 63
     7
421
 16777215
176
     1
 74
     1
176
     1
 91
        4
176
     1
 64
     7
176
     1
 65
   257
176
     1
 75
     1
176
     1
175
     1
176
     1
 42
1.0
176
     1
 92
        0
176
     1
 66
   257
176
     1
 43
1.0
176
     1
 76
     1
176
     1
 77
     6
176
     1
 78
     2
176
     1
 67
     7
176
     1
 79
     5
176
     1
170
     0
176
     1
171
     0
176
     1
290
     0
176
     1
 93
        1
176
     1
 44
0.0
176
     1
173
     0
176
     1
  0
VISUALSTYLE
  5
31
102
{ACAD_REACTORS
330
2A
102
}
330
2A
100
AcDbVisualStyle
  2
3D Hidden
 70
     6
177
     2
291
     0
 71
     1
176
     1
 72
     2
176
     1
 73
     2
176
     1
 90
        0
176
     1
 40
-0.6
176
     1
 41
-30.0
176
     1
 62
     5
 63
     7
421
 16777215
176
     1
 74
     2
176
     1
 91
        2
176
     1
 64
     7
176
     1
 65
   257
176
     1
 75
     2
176
     1
175
     1
176
     1
 42
40.0
176
     1
 92
        0
176
     1
 66
   257
176
     1
 43
1.0
176
     1
 76
     1
176
     1
 77
     6
176
     1
 78
     2
176
     1
 67
     7
176
     1
 79
     3
176
     1
170
     0
176
     1
171
     0
176
     1
290
     0
176
     1
 93
        1
176
     1
 44
0.0
176
     1
173
     0
176
     1
  0
VISUALSTYLE
  5
30
102
{ACAD_REACTORS
330
2A
102
}
330
2A
100
AcDbVisualStyle
  2
3dWireframe
 70
     5
177
     2
291
     0
 71
     0
176
     1
 72
     2
176
     1
 73
     0
176
     1
 90
        0
176
     1
 40
-0.6
176
     1
 41
-30.0
176
     1
 62
     5
 63
     7
421
 16777215
176
     1
 74
     1
176
     1
 91
        4
176
     1
 64
     7
176
     1
 65
   257
176
     1
 75
     1
176
     1
175
     1
176
     1
 42
1.0
176
     1
 92
        0
176
     1
 66
   257
176
     1
 43
1.0
176
     1
 76
     1
176
     1
 77
     6
176
     1
 78
     2
176
     1
 67
     7
176
     1
 79
     5
176
     1
170
     0
176
     1
171
     0
176
     1
290
     0
176
     1
 93
        1
176
     1
 44
0.0
176
     1
173
     0
176
     1
  0
VISUALSTYLE
  5
32
102
{ACAD_REACTORS
330
2A
102
}
330
2A
100
AcDbVisualStyle
  2
Basic
 70
     7
177
     2
291
     1
 71
     1
176
     1
 72
     0
176
     1
 73
     1
176
     1
 90
        0
176
     1
 40
-0.6
176
     1
 41
-30.0
176
     1
 62
     5
 63
     7
421
 16777215
176
     1
 74
     0
176
     1
 91
        4
176
     1
 64
     7
176
     1
 65
   257
176
     1
 75
     1
176
     1
175
     1
176
     1
 42
1.0
176
     1
 92
        8
176
     1
 66
     7
176
     1
 43
1.0
176
     1
 76
     1
176
     1
 77
     6
176
     1
 78
     2
176
     1
 67
     7
176
     1
 79
     5
176
     1
170
     0
176
     1
171
     0
176
     1
290
     0
176
     1
 93
        1
176
     1
 44
0.0
176
     1
173
     0
176
     1
  0
VISUALSTYLE
  5
36
102
{ACAD_REACTORS
330
2A
102
}
330
2A
100
AcDbVisualStyle
  2
Brighten
 70
    12
177
     2
291
     1
 71
     2
176
     1
 72
     2
176
     1
 73
     0
176
     1
 90
        0
176
     1
 40
-0.6
176
     1
 41
-30.0
176
     1
 62
     5
 63
     7
421
 16777215
176
     1
 74
     1
176
     1
 91
        4
176
     1
 64
     7
176
     1
 65
   257
176
     1
 75
     1
176
     1
175
     1
176
     1
 42
1.0
176
     1
 92
        8
176
     1
 66
     7
176
     1
 43
1.0
176
     1
 76
     1
176
     1
 77
     6
176
     1
 78
     2
176
     1
 67
     7
176
     1
 79
     5
176
     1
170
     0
176
     1
171
     0
176
     1
290
     0
176
     1
 93
        1
176
     1
 44
50.0
176
     1
173
     0
176
     1
  0
VISUALSTYLE
  5
3A
102
{ACAD_REACTORS
330
2A
102
}
330
2A
100
AcDbVisualStyle
  2
ColorChange
 70
    16
177
     2
291
     1
 71
     2
176
     1
 72
     2
176
     1
 73
     3
176
     1
 90
        0
176
     1
 40
-0.6
176
     1
 41
-30.0
176
     1
 62
     5
 63
     8
421
  8421504
176
     1
 74
     1
176
     1
 91
        4
176
     1
 64
     7
176
     1
 65
   257
176
     1
 75
     1
176
     1
175
     1
176
     1
 42
1.0
176
     1
 92
        8
176
     1
 66
     8
424
  8421504
176
     1
 43
1.0
176
     1
 76
     1
176
     1
 77
     6
176
     1
 78
     2
176
     1
 67
     7
176
     1
 79
     5
176
     1
170
     0
176
     1
171
     0
176
     1
290
     0
176
     1
 93
        1
176
     1
 44
0.0
176
     1
173
     0
176
     1
  0
VISUALSTYLE
  5
34
102
{ACAD_REACTORS
330
2A
102
}
330
2A
100
AcDbVisualStyle
  2
Conceptual
 70
     9
177
     2
291
     0
 71
     3
176
     1
 72
     2
176
     1
 73
     0
176
     1
 90
        0
176
     1
 40
-0.6
176
     1
 41
-30.0
176
     1
 62
     5
 63
     7
421
 16777215
176
     1
 74
     2
176
     1
 91
        2
176
     1
 64
     7
176
     1
 65
   257
176
     1
 75
     1
176
     1
175
     1
176
     1
 42
40.0
176
     1
 92
        8
176
     1
 66
     7
176
     1
 43
1.0
176
     1
 76
     1
176
     1
 77
     6
176
     1
 78
     2
176
     1
 67
     7
176
     1
 79
     3
176
     1
170
     0
176
     1
171
     0
176
     1
290
     0
176
     1
 93
        1
176
     1
 44
0.0
176
     1
173
     0
176
     1
  0
VISUALSTYLE
  5
35
102
{ACAD_REACTORS
330
2A
102
}
330
2A
100
AcDbVisualStyle
  2
Dim
 70
    11
177
     2
291
     1
 71
     2
176
     1
 72
     2
176
     1
 73
     0
176
     1
 90
        0
176
     1
 40
-0.6
176
     1
 41
-30.0
176
     1
 62
     5
 63
     7
421
 16777215
176
     1
 74
     1
176
     1
 91
        4
176
     1
 64
     7
176
     1
 65
   257
176
     1
 75
     1
176
     1
175
     1
176
     1
 42
1.0
176
     1
 92
        8
176
     1
 66
     7
176
     1
 43
1.0
176
     1
 76
     1
176
     1
 77
     6
176
     1
 78
     2
176
     1
 67
     7
176
     1
 79
     5
176
     1
170
     0
176
     1
171
     0
176
     1
290
     0
176
     1
 93
        1
176
     1
 44
-50.0
176
     1
173
     0
176
     1
  0
VISUALSTYLE
  5
39
102
{ACAD_REACTORS
330
2A
102
}
330
2A
100
AcDbVisualStyle
  2
Facepattern
 70
    15
177
     2
291
     1
 71
     2
176
     1
 72
     2
176
     1
 73
     0
176
     1
 90
        0
176
     1
 40
-0.6
176
     1
 41
-30.0
176
     1
 62
     5
 63
     7
421
 16777215
176
     1
 74
     1
176
     1
 91
        4
176
     1
 64
     7
176
     1
 65
   257
176
     1
 75
     1
176
     1
175
     1
176
     1
 42
1.0
176
     1
 92
        8
176
     1
 66
     7
176
     1
 43
1.0
176
     1
 76
     1
176
     1
 77
     6
176
     1
 78
     2
176
     1
 67
     7
176
     1
 79
     5
176
     1
170
     0
176
     1
171
     0
176
     1
290
     0
176
     1
 93
        1
176
     1
 44
0.0
176
     1
173
     0
176
     1
  0
VISUALSTYLE
  5
2B
102
{ACAD_REACTORS
330
2A
102
}
330
2A
100
AcDbVisualStyle
  2
Flat
 70
     0
177
     2
291
     1
 71
     2
176
     1
 72
     1
176
     1
 73
     1
176
     1
 90
        2
176
     1
 40
-0.6
176
     1
 41
30.0
176
     1
 62
     5
 63
     7
421
 16777215
176
     1
 74
     0
176
     1
 91
        4
176
     1
 64
     7
176
     1
 65
   257
176
     1
 75
     1
176
     1
175
     1
176
     1
 42
1.0
176
     1
 92
        8
176
     1
 66
     7
176
     1
 43
1.0
176
     1
 76
     1
176
     1
 77
     6
176
     1
 78
     2
176
     1
 67
     7
176
     1
 79
     5
176
     1
170
     0
176
     1
171
     0
176
     1
290
     0
176
     1
 93
       13
176
     1
 44
0.0
176
     1
173
     0
176
     1
  0
VISUALSTYLE
  5
2C
102
{ACAD_REACTORS
330
2A
102
}
330
2A
100
AcDbVisualStyle
  2
FlatWithEdges
 70
     1
177
     2
291
     1
 71
     2
176
     1
 72
     1
176
     1
 73
     1
176
     1
 90
        2
176
     1
 40
-0.6
176
     1
 41
30.0
176
     1
 62
     5
 63
     7
421
 16777215
176
     1
 74
     1
176
     1
 91
        4
176
     1
 64
     7
176
     1
 65
   257
176
     1
 75
     1
176
     1
175
     1
176
     1
 42
1.0
176
     1
 92
        0
176
     1
 66
   257
176
     1
 43
1.0
176
     1
 76
     1
176
     1
 77
     6
176
     1
 78
     2
176
     1
 67
     7
176
     1
 79
     5
176
     1
170
     0
176
     1
171
     0
176
     1
290
     0
176
     1
 93
       13
176
     1
 44
0.0
176
     1
173
     0
176
     1
  0
VISUALSTYLE
  5
2D
102
{ACAD_REACTORS
330
2A
102
}
330
2A
100
AcDbVisualStyle
  2
Gouraud
 70
     2
177
     2
291
     1
 71
     2
176
     1
 72
     2
176
     1
 73
     1
176
     1
 90
        2
176
     1
 40
-0.6
176
     1
 41
30.0
176
     1
 62
     5
 63
     7
421
 16777215
176
     1
 74
     0
176
     1
 91
        4
176
     1
 64
     7
176
     1
 65
   257
176
     1
 75
     1
176
     1
175
     1
176
     1
 42
1.0
176
     1
 92
        0
176
     1
 66
     7
176
     1
 43
1.0
176
     1
 76
     1
176
     1
 77
     6
176
     1
 78
     2
176
     1
 67
     7
176
     1
 79
     5
176
     1
170
     0
176
     1
171
     0
176
     1
290
     0
176
     1
 93
       13
176
     1
 44
0.0
176
     1
173
     0
176
     1
  0
VISUALSTYLE
  5
2E
102
{ACAD_REACTORS
330
2A
102
}
330
2A
100
AcDbVisualStyle
  2
GouraudWithEdges
 70
     3
177
     2
291
     1
 71
     2
176
     1
 72
     2
176
     1
 73
     1
176
     1
 90
        2
176
     1
 40
-0.6
176
     1
 41
30.0
176
     1
 62
     5
 63
     7
421
 16777215
176
     1
 74
     1
176
     1
 91
        4
176
     1
 64
     7
176
     1
 65
   257
176
     1
 75
     1
176
     1
175
     1
176
     1
 42
1.0
176
     1
 92
        0
176
     1
 66
   257
176
     1
 43
1.0
176
     1
 76
     1
176
     1
 77
     6
176
     1
 78
     2
176
     1
 67
     7
176
     1
 79
     5
176
     1
170
     0
176
     1
171
     0
176
     1
290
     0
176
     1
 93
       13
176
     1
 44
0.0
176
     1
173
     0
176
     1
  0
VISUALSTYLE
  5
38
102
{ACAD_REACTORS
330
2A
102
}
330
2A
100
AcDbVisualStyle
  2
Linepattern
 70
    14
177
     2
291
     1
 71
     2
176
     1
 72
     2
176
     1
 73
     0
176
     1
 90
        0
176
     1
 40
-0.6
176
     1
 41
-30.0
176
     1
 62
     5
 63
     7
421
 16777215
176
     1
 74
     1
176
     1
 91
        4
176
     1
 64
     7
176
     1
 65
   257
176
     1
 75
     7
176
     1
175
     7
176
     1
 42
1.0
176
     1
 92
        8
176
     1
 66
     7
176
     1
 43
1.0
176
     1
 76
     1
176
     1
 77
     6
176
     1
 78
     2
176
     1
 67
     7
176
     1
 79
     5
176
     1
170
     0
176
     1
171
     0
176
     1
290
     0
176
     1
 93
        1
176
     1
 44
0.0
176
     1
173
     0
176
     1
  0
VISUALSTYLE
  5
33
102
{ACAD_REACTORS
330
2A
102
}
330
2A
100
AcDbVisualStyle
  2
Realistic
 70
     8
177
     2
291
     0
 71
     2
176
     1
 72
     2
176
     1
 73
     0
176
     1
 90
        0
176
     1
 40
-0.6
176
     1
 41
-30.0
176
     1
 62
     5
 63
     7
421
 16777215
176
     1
 74
     1
176
     1
 91
        0
176
     1
 64
     7
176
     1
 65
   257
176
     1
 75
     1
176
     1
175
     1
176
     1
 42
1.0
176
     1
 92
        8
176
     1
 66
     8
424
  7895160
176
     1
 43
1.0
176
     1
 76
     1
176
     1
 77
     6
176
     1
 78
     2
176
     1
 67
     7
176
     1
 79
     5
176
     1
170
     0
176
     1
171
     0
176
     1
290
     0
176
     1
 93
       13
176
     1
 44
0.0
176
     1
173
     0
176
     1
  0
VISUALSTYLE
  5
37
102
{ACAD_REACTORS
330
2A
102
}
330
2A
100
AcDbVisualStyle
  2
Thicken
 70
    13
177
     2
291
     1
 71
     2
176
     1
 72
     2
176
     1
 73
     0
176
     1
 90
        0
176
     1
 40
-0.6
176
     1
 41
-30.0
176
     1
 62
     5
 63
     7
421
 16777215
176
     1
 74
     1
176
     1
 91
        4
176
     1
 64
     7
176
     1
 65
   257
176
     1
 75
     1
176
     1
175
     1
176
     1
 42
1.0
176
     1
 92
       12
176
     1
 66
     7
176
     1
 43
1.0
176
     1
 76
     1
176
     1
 77
     6
176
     1
 78
     2
176
     1
 67
     7
176
     1
 79
     5
176
     1
170
     0
176
     1
171
     0
176
     1
290
     0
176
     1
 93
        1
176
     1
 44
0.0
176
     1
173
     0
176
     1
  0
ENDSEC
  0
EOF
